<svg xmlns="http://www.w3.org/2000/svg" width="155" height="232" fill="none"><path fill="#000" d="M154.63 224.96h-7.04v6.98h7.04v-6.98ZM154.63 217.91h-7.04v7.05h7.04v-7.05ZM154.63 210.93h-7.04v6.98h7.04v-6.98ZM154.63 203.88h-7.04v7.05h7.04v-7.05ZM154.63 196.83h-7.04v7.04h7.04v-7.04ZM154.63 189.84h-7.04v6.99h7.04v-6.99ZM154.63 182.8h-7.04v7.04h7.04v-7.04ZM154.63 147.69h-7.04v7.04h7.04v-7.04ZM154.63 140.7h-7.04v6.98h7.04v-6.98Z"/><path fill="#000" d="M154.63 133.65h-7.04v7.05h7.04v-7.05ZM154.63 126.67h-7.04v6.98h7.04v-6.98ZM154.63 119.62h-7.04v7.05h7.04v-7.05ZM154.63 112.64h-7.04v6.98h7.04v-6.98ZM154.63 105.59h-7.04v7.05h7.04v-7.05ZM154.63 98.61h-7.04v6.98h7.04v-6.98ZM154.63 91.56h-7.04v7.05h7.04v-7.05Z"/><path fill="#F20000" d="M154.63 7.3h-7.04v7.05h7.04V7.3Z"/><path fill="#F20000" d="M154.63.33h-7.04v6.98h7.04V.33Z"/><path fill="#000" d="M147.591 224.96h-6.98v6.98h6.98v-6.98Z"/><path fill="#3C4360" d="M147.591 217.91h-6.98v7.05h6.98v-7.05ZM147.591 210.93h-6.98v6.98h6.98v-6.98ZM147.591 203.88h-6.98v7.05h6.98v-7.05Z"/><path fill="#000" d="M147.591 196.83h-6.98v7.04h6.98v-7.04Z"/><path fill="#3C4360" d="M147.591 189.84h-6.98v6.99h6.98v-6.99Z"/><path fill="#000" d="M147.591 182.8h-6.98v7.04h6.98v-7.04ZM147.591 175.82h-6.98v6.98h6.98v-6.98ZM147.591 168.76h-6.98v7.05h6.98v-7.05Z"/><path fill="#000" d="M147.591 161.79h-6.98v6.98h6.98v-6.98ZM147.591 154.73h-6.98v7.05h6.98v-7.05Z"/><path fill="#F49364" d="M147.591 147.69h-6.98v7.04h6.98v-7.04Z"/><path fill="#AD17AD" d="M147.591 140.7h-6.98v6.98h6.98v-6.98Z"/><path fill="#AD17AD" d="M147.591 133.65h-6.98v7.05h6.98v-7.05ZM147.591 126.67h-6.98v6.98h6.98v-6.98ZM147.591 119.62h-6.98v7.05h6.98v-7.05ZM147.591 112.64h-6.98v6.98h6.98v-6.98ZM147.591 105.59h-6.98v7.05h6.98v-7.05ZM147.591 98.61h-6.98v6.98h6.98v-6.98Z"/><path fill="#8A0391" d="M147.591 91.56h-6.98v7.05h6.98v-7.05Z"/><path fill="#000" d="M147.591 84.51h-6.98v7.05h6.98v-7.05ZM147.591 28.39h-6.98v6.98h6.98v-6.98ZM147.591 21.34h-6.98v7.05h6.98v-7.05Z"/><path fill="#F20000" d="M147.591 14.36h-6.98v6.98h6.98v-6.98ZM147.591 7.3h-6.98v7.05h6.98V7.3Z"/><path fill="#F20000" d="M147.591.33h-6.98v6.98h6.98V.33Z"/><path fill="#000" d="M140.601 224.96h-7.05v6.98h7.05v-6.98Z"/><path fill="#3C4360" d="M140.601 217.91h-7.05v7.05h7.05v-7.05ZM140.601 210.93h-7.05v6.98h7.05v-6.98ZM140.601 203.88h-7.05v7.05h7.05v-7.05Z"/><path fill="#000" d="M140.601 196.83h-7.05v7.04h7.05v-7.04Z"/><path fill="#3C4360" d="M140.601 189.84h-7.05v6.99h7.05v-6.99Z"/><path fill="#8A0391" d="M140.601 182.8h-7.05v7.04h7.05v-7.04ZM140.601 175.82h-7.05v6.98h7.05v-6.98ZM140.601 168.76h-7.05v7.05h7.05v-7.05Z"/><path fill="#8A0391" d="M140.601 161.79h-7.05v6.98h7.05v-6.98Z"/><path fill="#000" d="M140.601 154.73h-7.05v7.05h7.05v-7.05Z"/><path fill="#F49364" d="M140.601 147.69h-7.05v7.04h7.05v-7.04Z"/><path fill="#AD17AD" d="M140.601 140.7h-7.05v6.98h7.05v-6.98Z"/><path fill="#AD17AD" d="M140.601 133.65h-7.05v7.05h7.05v-7.05ZM140.601 126.67h-7.05v6.98h7.05v-6.98ZM140.601 119.62h-7.05v7.05h7.05v-7.05ZM140.601 112.64h-7.05v6.98h7.05v-6.98ZM140.601 105.59h-7.05v7.05h7.05v-7.05ZM140.601 98.61h-7.05v6.98h7.05v-6.98ZM140.601 91.56h-7.05v7.05h7.05v-7.05Z"/><path fill="#500256" d="M140.601 84.51h-7.05v7.05h7.05v-7.05Z"/><path fill="#000" d="M140.601 77.53h-7.05v6.98h7.05v-6.98ZM140.601 63.5h-7.05v6.98h7.05V63.5ZM140.601 56.45h-7.05v7.05h7.05v-7.05ZM140.601 49.47h-7.05v6.98h7.05v-6.98ZM140.601 42.42h-7.05v7.05h7.05v-7.05ZM140.601 35.37h-7.05v7.05h7.05v-7.05Z"/><path fill="#8A0391" d="M140.601 28.39h-7.05v6.98h7.05v-6.98Z"/><path fill="#F20000" d="M140.601 21.34h-7.05v7.05h7.05v-7.05ZM140.601 14.36h-7.05v6.98h7.05v-6.98ZM140.601 7.3h-7.05v7.05h7.05V7.3Z"/><path fill="#000" d="M133.55 224.96h-6.98v6.98h6.98v-6.98Z"/><path fill="#3C4360" d="M133.55 217.91h-6.98v7.05h6.98v-7.05Z"/><path fill="#000" d="M133.55 210.93h-6.98v6.98h6.98v-6.98ZM133.55 203.88h-6.98v7.05h6.98v-7.05ZM133.55 196.83h-6.98v7.04h6.98v-7.04Z"/><path fill="#3C4360" d="M133.55 189.84h-6.98v6.99h6.98v-6.99Z"/><path fill="#8A0391" d="M133.55 182.8h-6.98v7.04h6.98v-7.04ZM133.55 175.82h-6.98v6.98h6.98v-6.98Z"/><path fill="#AD17AD" d="M133.55 168.76h-6.98v7.05h6.98v-7.05Z"/><path fill="#AD17AD" d="M133.55 161.79h-6.98v6.98h6.98v-6.98ZM133.55 154.73h-6.98v7.05h6.98v-7.05Z"/><path fill="#B8602D" d="M133.55 147.69h-6.98v7.04h6.98v-7.04Z"/><path fill="#AD17AD" d="M133.55 140.7h-6.98v6.98h6.98v-6.98Z"/><path fill="#AD17AD" d="M133.55 133.65h-6.98v7.05h6.98v-7.05ZM133.55 126.67h-6.98v6.98h6.98v-6.98ZM133.55 119.62h-6.98v7.05h6.98v-7.05ZM133.55 112.64h-6.98v6.98h6.98v-6.98ZM133.55 105.59h-6.98v7.05h6.98v-7.05ZM133.55 98.61h-6.98v6.98h6.98v-6.98Z"/><path fill="#500256" d="M133.55 91.56h-6.98v7.05h6.98v-7.05Z"/><path fill="#63036D" d="M133.55 84.51h-6.98v7.05h6.98v-7.05Z"/><path fill="#000" d="M133.55 77.53h-6.98v6.98h6.98v-6.98ZM133.55 70.48h-6.98v7.05h6.98v-7.05Z"/><path fill="#873810" d="M133.55 63.5h-6.98v6.98h6.98V63.5ZM133.55 56.45h-6.98v7.05h6.98v-7.05ZM133.55 49.47h-6.98v6.98h6.98v-6.98Z"/><path fill="#000" d="M133.55 42.42h-6.98v7.05h6.98v-7.05Z"/><path fill="#AD17AD" d="M133.55 35.37h-6.98v7.05h6.98v-7.05Z"/><path fill="#AD17AD" d="M133.55 28.39h-6.98v6.98h6.98v-6.98Z"/><path fill="#F20000" d="M133.55 21.34h-6.98v7.05h6.98v-7.05ZM133.55 14.36h-6.98v6.98h6.98v-6.98Z"/><path fill="#000" d="M133.55 7.3h-6.98v7.05h6.98V7.3ZM126.57 224.96h-7.05v6.98h7.05v-6.98ZM126.57 217.91h-7.05v7.05h7.05v-7.05ZM126.57 189.84h-7.05v6.99h7.05v-6.99Z"/><path fill="#8A0391" d="M126.57 182.8h-7.05v7.04h7.05v-7.04ZM126.57 175.82h-7.05v6.98h7.05v-6.98Z"/><path fill="#AD17AD" d="M126.57 168.76h-7.05v7.05h7.05v-7.05Z"/><path fill="#AD17AD" d="M126.57 161.79h-7.05v6.98h7.05v-6.98ZM126.57 154.73h-7.05v7.05h7.05v-7.05ZM126.57 147.69h-7.05v7.04h7.05v-7.04ZM126.57 140.7h-7.05v6.98h7.05v-6.98Z"/><path fill="#500256" d="M126.57 133.65h-7.05v7.05h7.05v-7.05ZM126.57 126.67h-7.05v6.98h7.05v-6.98ZM126.57 119.62h-7.05v7.05h7.05v-7.05ZM126.57 112.64h-7.05v6.98h7.05v-6.98ZM126.57 105.59h-7.05v7.05h7.05v-7.05ZM126.57 98.61h-7.05v6.98h7.05v-6.98Z"/><path fill="#63036D" d="M126.57 91.56h-7.05v7.05h7.05v-7.05ZM126.57 84.51h-7.05v7.05h7.05v-7.05Z"/><path fill="#000" d="M126.57 77.53h-7.05v6.98h7.05v-6.98Z"/><path fill="#873810" d="M126.57 70.48h-7.05v7.05h7.05v-7.05Z"/><path fill="#F49364" d="M126.57 63.5h-7.05v6.98h7.05V63.5ZM126.57 56.45h-7.05v7.05h7.05v-7.05Z"/><path fill="#873810" d="M126.57 49.47h-7.05v6.98h7.05v-6.98Z"/><path fill="#000" d="M126.57 42.42h-7.05v7.05h7.05v-7.05Z"/><path fill="#AD17AD" d="M126.57 35.37h-7.05v7.05h7.05v-7.05Z"/><path fill="#AD17AD" d="M126.57 28.39h-7.05v6.98h7.05v-6.98Z"/><path fill="#8A0391" d="M126.57 21.34h-7.05v7.05h7.05v-7.05Z"/><path fill="#AD17AD" d="M126.57 14.36h-7.05v6.98h7.05v-6.98ZM126.57 7.3h-7.05v7.05h7.05V7.3Z"/><path fill="#000" d="M126.57.33h-7.05v6.98h7.05V.33Z"/><path fill="#570459" d="M119.521 182.8h-6.98v7.04h6.98v-7.04Z"/><path fill="#8A0391" d="M119.521 175.82h-6.98v6.98h6.98v-6.98Z"/><path fill="#AD17AD" d="M119.521 168.76h-6.98v7.05h6.98v-7.05Z"/><path fill="#AD17AD" d="M119.521 161.79h-6.98v6.98h6.98v-6.98ZM119.521 154.73h-6.98v7.05h6.98v-7.05ZM119.521 147.69h-6.98v7.04h6.98v-7.04ZM119.521 140.7h-6.98v6.98h6.98v-6.98Z"/><path fill="#500256" d="M119.521 133.65h-6.98v7.05h6.98v-7.05Z"/><path fill="#63036D" d="M119.521 126.67h-6.98v6.98h6.98v-6.98Z"/><path fill="#500256" d="M119.521 119.62h-6.98v7.05h6.98v-7.05Z"/><path fill="#63036D" d="M119.521 112.64h-6.98v6.98h6.98v-6.98ZM119.521 105.59h-6.98v7.05h6.98v-7.05ZM119.521 98.61h-6.98v6.98h6.98v-6.98ZM119.521 91.56h-6.98v7.05h6.98v-7.05Z"/><path fill="#000" d="M119.521 84.51h-6.98v7.05h6.98v-7.05Z"/><path fill="#873810" d="M119.521 77.53h-6.98v6.98h6.98v-6.98Z"/><path fill="#F49364" d="M119.521 70.48h-6.98v7.05h6.98v-7.05Z"/><path fill="#FFEFD3" d="M119.521 63.5h-6.98v6.98h6.98V63.5ZM119.521 56.45h-6.98v7.05h6.98v-7.05Z"/><path fill="#F49364" d="M119.521 49.47h-6.98v6.98h6.98v-6.98Z"/><path fill="#000" d="M119.521 42.42h-6.98v7.05h6.98v-7.05Z"/><path fill="#AD17AD" d="M119.521 35.37h-6.98v7.05h6.98v-7.05Z"/><path fill="#AD17AD" d="M119.521 28.39h-6.98v6.98h6.98v-6.98ZM119.521 21.34h-6.98v7.05h6.98v-7.05ZM119.521 14.36h-6.98v6.98h6.98v-6.98ZM119.521 7.3h-6.98v7.05h6.98V7.3Z"/><path fill="#000" d="M119.521.33h-6.98v6.98h6.98V.33ZM112.54 224.96h-7.05v6.98h7.05v-6.98ZM112.54 217.91h-7.05v7.05h7.05v-7.05ZM112.54 210.93h-7.05v6.98h7.05v-6.98ZM112.54 203.88h-7.05v7.05h7.05v-7.05ZM112.54 196.83h-7.05v7.04h7.05v-7.04ZM112.54 189.84h-7.05v6.99h7.05v-6.99ZM112.54 182.8h-7.05v7.04h7.05v-7.04Z"/><path fill="#570459" d="M112.54 175.82h-7.05v6.98h7.05v-6.98Z"/><path fill="#8A0391" d="M112.54 168.76h-7.05v7.05h7.05v-7.05Z"/><path fill="#AD17AD" d="M112.54 161.79h-7.05v6.98h7.05v-6.98ZM112.54 154.73h-7.05v7.05h7.05v-7.05ZM112.54 147.69h-7.05v7.04h7.05v-7.04ZM112.54 140.7h-7.05v6.98h7.05v-6.98Z"/><path fill="#500256" d="M112.54 133.65h-7.05v7.05h7.05v-7.05Z"/><path fill="#63036D" d="M112.54 126.67h-7.05v6.98h7.05v-6.98Z"/><path fill="#500256" d="M112.54 119.62h-7.05v7.05h7.05v-7.05Z"/><path fill="#63036D" d="M112.54 112.64h-7.05v6.98h7.05v-6.98ZM112.54 105.59h-7.05v7.05h7.05v-7.05ZM112.54 98.61h-7.05v6.98h7.05v-6.98Z"/><path fill="#000" d="M112.54 91.56h-7.05v7.05h7.05v-7.05Z"/><path fill="#F49364" d="M112.54 84.51h-7.05v7.05h7.05v-7.05Z"/><path fill="#873810" d="M112.54 77.53h-7.05v6.98h7.05v-6.98Z"/><path fill="#FFEFD3" d="M112.54 70.48h-7.05v7.05h7.05v-7.05ZM112.54 63.5h-7.05v6.98h7.05V63.5ZM112.54 56.45h-7.05v7.05h7.05v-7.05Z"/><path fill="#000" d="M112.54 49.47h-7.05v6.98h7.05v-6.98Z"/><path fill="#AD17AD" d="M112.54 42.42h-7.05v7.05h7.05v-7.05ZM112.54 35.37h-7.05v7.05h7.05v-7.05Z"/><path fill="#AD17AD" d="M112.54 28.39h-7.05v6.98h7.05v-6.98ZM112.54 21.34h-7.05v7.05h7.05v-7.05ZM112.54 14.36h-7.05v6.98h7.05v-6.98ZM112.54 7.3h-7.05v7.05h7.05V7.3Z"/><path fill="#000" d="M112.54.33h-7.05v6.98h7.05V.33ZM105.49 224.96h-6.98v6.98h6.98v-6.98Z"/><path fill="#3C4360" d="M105.49 217.91h-6.98v7.05h6.98v-7.05ZM105.49 210.93h-6.98v6.98h6.98v-6.98ZM105.49 203.88h-6.98v7.05h6.98v-7.05Z"/><path fill="#000" d="M105.49 196.83h-6.98v7.04h6.98v-7.04Z"/><path fill="#3C4360" d="M105.49 189.84h-6.98v6.99h6.98v-6.99Z"/><path fill="#570459" d="M105.49 182.8h-6.98v7.04h6.98v-7.04Z"/><path fill="#8A0391" d="M105.49 175.82h-6.98v6.98h6.98v-6.98Z"/><path fill="#570459" d="M105.49 168.76h-6.98v7.05h6.98v-7.05Z"/><path fill="#8A0391" d="M105.49 161.79h-6.98v6.98h6.98v-6.98Z"/><path fill="#AD17AD" d="M105.49 154.73h-6.98v7.05h6.98v-7.05ZM105.49 147.69h-6.98v7.04h6.98v-7.04ZM105.49 140.7h-6.98v6.98h6.98v-6.98Z"/><path fill="#500256" d="M105.49 133.65h-6.98v7.05h6.98v-7.05ZM105.49 126.67h-6.98v6.98h6.98v-6.98ZM105.49 119.62h-6.98v7.05h6.98v-7.05ZM105.49 112.64h-6.98v6.98h6.98v-6.98ZM105.49 105.59h-6.98v7.05h6.98v-7.05ZM105.49 98.61h-6.98v6.98h6.98v-6.98Z"/><path fill="#000" d="M105.49 91.56h-6.98v7.05h6.98v-7.05Z"/><path fill="#F49364" d="M105.49 84.51h-6.98v7.05h6.98v-7.05Z"/><path fill="#873810" d="M105.49 77.53h-6.98v6.98h6.98v-6.98Z"/><path fill="#FFEFD3" d="M105.49 70.48h-6.98v7.05h6.98v-7.05ZM105.49 63.5h-6.98v6.98h6.98V63.5ZM105.49 56.45h-6.98v7.05h6.98v-7.05Z"/><path fill="#000" d="M105.49 49.47h-6.98v6.98h6.98v-6.98Z"/><path fill="#AD17AD" d="M105.49 42.42h-6.98v7.05h6.98v-7.05ZM105.49 35.37h-6.98v7.05h6.98v-7.05Z"/><path fill="#8A0391" d="M105.49 28.39h-6.98v6.98h6.98v-6.98Z"/><path fill="#AD17AD" d="M105.49 21.34h-6.98v7.05h6.98v-7.05ZM105.49 14.36h-6.98v6.98h6.98v-6.98ZM105.49 7.3h-6.98v7.05h6.98V7.3Z"/><path fill="#000" d="M105.49.33h-6.98v6.98h6.98V.33ZM98.51 224.96h-7.05v6.98h7.05v-6.98Z"/><path fill="#3C4360" d="M98.51 217.91h-7.05v7.05h7.05v-7.05ZM98.51 210.93h-7.05v6.98h7.05v-6.98ZM98.51 203.88h-7.05v7.05h7.05v-7.05Z"/><path fill="#000" d="M98.51 196.83h-7.05v7.04h7.05v-7.04Z"/><path fill="#3C4360" d="M98.51 189.84h-7.05v6.99h7.05v-6.99Z"/><path fill="#570459" d="M98.51 182.8h-7.05v7.04h7.05v-7.04Z"/><path fill="#8A0391" d="M98.51 175.82h-7.05v6.98h7.05v-6.98Z"/><path fill="#AD17AD" d="M98.51 168.76h-7.05v7.05h7.05v-7.05Z"/><path fill="#570459" d="M98.51 161.79h-7.05v6.98h7.05v-6.98ZM98.51 154.73h-7.05v7.05h7.05v-7.05Z"/><path fill="#AD17AD" d="M98.51 147.69h-7.05v7.04h7.05v-7.04ZM98.51 140.7h-7.05v6.98h7.05v-6.98Z"/><path fill="#500256" d="M98.51 133.65h-7.05v7.05h7.05v-7.05ZM98.51 126.67h-7.05v6.98h7.05v-6.98ZM98.51 119.62h-7.05v7.05h7.05v-7.05ZM98.51 112.64h-7.05v6.98h7.05v-6.98ZM98.51 105.59h-7.05v7.05h7.05v-7.05ZM98.51 98.61h-7.05v6.98h7.05v-6.98Z"/><path fill="#000" d="M98.51 91.56h-7.05v7.05h7.05v-7.05Z"/><path fill="#500256" d="M98.51 84.51h-7.05v7.05h7.05v-7.05Z"/><path fill="#000" d="M98.51 77.53h-7.05v6.98h7.05v-6.98Z"/><path fill="#FFEFD3" d="M98.51 70.48h-7.05v7.05h7.05v-7.05ZM98.51 63.5h-7.05v6.98h7.05V63.5ZM98.51 56.45h-7.05v7.05h7.05v-7.05Z"/><path fill="#000" d="M98.51 49.47h-7.05v6.98h7.05v-6.98Z"/><path fill="#AD17AD" d="M98.51 42.42h-7.05v7.05h7.05v-7.05ZM98.51 35.37h-7.05v7.05h7.05v-7.05Z"/><path fill="#8A0391" d="M98.51 28.39h-7.05v6.98h7.05v-6.98Z"/><path fill="#AD17AD" d="M98.51 21.34h-7.05v7.05h7.05v-7.05ZM98.51 14.36h-7.05v6.98h7.05v-6.98Z"/><path fill="#000" d="M98.51 7.3h-7.05v7.05h7.05V7.3ZM91.46 224.96h-7.05v6.98h7.05v-6.98Z"/><path fill="#3C4360" d="M91.46 217.91h-7.05v7.05h7.05v-7.05Z"/><path fill="#000" d="M91.46 210.93h-7.05v6.98h7.05v-6.98ZM91.46 203.88h-7.05v7.05h7.05v-7.05ZM91.46 196.83h-7.05v7.04h7.05v-7.04Z"/><path fill="#3C4360" d="M91.46 189.84h-7.05v6.99h7.05v-6.99Z"/><path fill="#570459" d="M91.46 182.8h-7.05v7.04h7.05v-7.04Z"/><path fill="#8A0391" d="M91.46 175.82h-7.05v6.98h7.05v-6.98Z"/><path fill="#AD17AD" d="M91.46 168.76h-7.05v7.05h7.05v-7.05Z"/><path fill="#AD17AD" d="M91.46 161.79h-7.05v6.98h7.05v-6.98ZM91.46 154.73h-7.05v7.05h7.05v-7.05ZM91.46 147.69h-7.05v7.04h7.05v-7.04ZM91.46 140.7h-7.05v6.98h7.05v-6.98Z"/><path fill="#500256" d="M91.46 133.65h-7.05v7.05h7.05v-7.05ZM91.46 126.67h-7.05v6.98h7.05v-6.98ZM91.46 119.62h-7.05v7.05h7.05v-7.05ZM91.46 112.64h-7.05v6.98h7.05v-6.98ZM91.46 105.59h-7.05v7.05h7.05v-7.05ZM91.46 98.61h-7.05v6.98h7.05v-6.98ZM91.46 91.56h-7.05v7.05h7.05v-7.05Z"/><path fill="#000" d="M91.46 84.51h-7.05v7.05h7.05v-7.05ZM91.46 77.53h-7.05v6.98h7.05v-6.98ZM91.46 70.48h-7.05v7.05h7.05v-7.05ZM91.46 63.5h-7.05v6.98h7.05V63.5ZM91.46 56.45h-7.05v7.05h7.05v-7.05ZM91.46 49.47h-7.05v6.98h7.05v-6.98Z"/><path fill="#AD17AD" d="M91.46 42.42h-7.05v7.05h7.05v-7.05ZM91.46 35.37h-7.05v7.05h7.05v-7.05Z"/><path fill="#8A0391" d="M91.46 28.39h-7.05v6.98h7.05v-6.98Z"/><path fill="#AD17AD" d="M91.46 21.34h-7.05v7.05h7.05v-7.05Z"/><path fill="#000" d="M91.46 14.36h-7.05v6.98h7.05v-6.98ZM84.41 224.96h-6.98v6.98h6.98v-6.98ZM84.41 217.91h-6.98v7.05h6.98v-7.05ZM84.41 189.84h-6.98v6.99h6.98v-6.99ZM84.41 182.8h-6.98v7.04h6.98v-7.04Z"/><path fill="#8A0391" d="M84.41 175.82h-6.98v6.98h6.98v-6.98Z"/><path fill="#AD17AD" d="M84.41 168.76h-6.98v7.05h6.98v-7.05Z"/><path fill="#AD17AD" d="M84.41 161.79h-6.98v6.98h6.98v-6.98ZM84.41 154.73h-6.98v7.05h6.98v-7.05ZM84.41 147.69h-6.98v7.04h6.98v-7.04ZM84.41 140.7h-6.98v6.98h6.98v-6.98Z"/><path fill="#000" d="M84.41 133.65h-6.98v7.05h6.98v-7.05ZM84.41 126.67h-6.98v6.98h6.98v-6.98ZM84.41 119.62h-6.98v7.05h6.98v-7.05ZM84.41 112.64h-6.98v6.98h6.98v-6.98ZM84.41 105.59h-6.98v7.05h6.98v-7.05ZM84.41 98.61h-6.98v6.98h6.98v-6.98ZM84.41 91.56h-6.98v7.05h6.98v-7.05ZM84.41 84.51h-6.98v7.05h6.98v-7.05ZM84.41 49.47h-6.98v6.98h6.98v-6.98Z"/><path fill="#AD17AD" d="M84.41 42.42h-6.98v7.05h6.98v-7.05ZM84.41 35.37h-6.98v7.05h6.98v-7.05Z"/><path fill="#8A0391" d="M84.41 28.39h-6.98v6.98h6.98v-6.98Z"/><path fill="#000" d="M84.41 21.34h-6.98v7.05h6.98v-7.05ZM77.43 175.82h-7.05v6.98h7.05v-6.98ZM77.43 168.76h-7.05v7.05h7.05v-7.05Z"/><path fill="#000" d="M77.43 161.79h-7.05v6.98h7.05v-6.98ZM77.43 154.73h-7.05v7.05h7.05v-7.05ZM77.43 147.69h-7.05v7.04h7.05v-7.04ZM77.43 140.7h-7.05v6.98h7.05v-6.98ZM77.43 119.62h-7.05v7.05h7.05v-7.05Z"/><path fill="#8A0391" d="M77.43 112.64h-7.05v6.98h7.05v-6.98ZM77.43 105.59h-7.05v7.05h7.05v-7.05ZM77.43 98.61h-7.05v6.98h7.05v-6.98Z"/><path fill="#000" d="M77.43 91.56h-7.05v7.05h7.05v-7.05ZM77.43 49.47h-7.05v6.98h7.05v-6.98Z"/><path fill="#AD17AD" d="M77.43 42.42h-7.05v7.05h7.05v-7.05ZM77.43 35.37h-7.05v7.05h7.05v-7.05Z"/><path fill="#000" d="M77.43 28.39h-7.05v6.98h7.05v-6.98ZM70.38 126.67H63.4v6.98h6.98v-6.98Z"/><path fill="#8A0391" d="M70.38 119.62H63.4v7.05h6.98v-7.05ZM70.38 112.64H63.4v6.98h6.98v-6.98ZM70.38 105.59H63.4v7.05h6.98v-7.05Z"/><path fill="#000" d="M70.38 98.61H63.4v6.98h6.98v-6.98ZM70.38 42.42H63.4v7.05h6.98v-7.05ZM70.38 35.37H63.4v7.05h6.98v-7.05ZM63.4 196.83h-7.05v7.04h7.05v-7.04ZM63.4 189.84h-7.05v6.99h7.05v-6.99ZM63.4 126.67h-7.05v6.98h7.05v-6.98Z"/><path fill="#8A0391" d="M63.4 119.62h-7.05v7.05h7.05v-7.05ZM63.4 112.64h-7.05v6.98h7.05v-6.98Z"/><path fill="#000" d="M63.4 105.59h-7.05v7.05h7.05v-7.05ZM63.4 21.34h-7.05v7.05h7.05v-7.05ZM63.4 14.36h-7.05v6.98h7.05v-6.98ZM56.351 203.88h-6.98v7.05h6.98v-7.05Z"/><path fill="#B8602D" d="M56.351 196.83h-6.98v7.04h6.98v-7.04Z"/><path fill="#FFEFD3" d="M56.351 189.84h-6.98v6.99h6.98v-6.99ZM56.351 182.8h-6.98v7.04h6.98v-7.04ZM56.351 175.82h-6.98v6.98h6.98v-6.98ZM56.351 168.76h-6.98v7.05h6.98v-7.05Z"/><path fill="#FFEFD3" d="M56.351 161.79h-6.98v6.98h6.98v-6.98ZM56.351 154.73h-6.98v7.05h6.98v-7.05ZM56.351 147.69h-6.98v7.04h6.98v-7.04ZM56.351 140.7h-6.98v6.98h6.98v-6.98Z"/><path fill="#FFEFD3" d="M56.351 133.65h-6.98v7.05h6.98v-7.05ZM56.351 126.67h-6.98v6.98h6.98v-6.98ZM56.351 119.62h-6.98v7.05h6.98v-7.05ZM56.351 112.64h-6.98v6.98h6.98v-6.98ZM56.351 105.59h-6.98v7.05h6.98v-7.05ZM56.351 98.61h-6.98v6.98h6.98v-6.98ZM56.351 91.56h-6.98v7.05h6.98v-7.05ZM56.351 84.51h-6.98v7.05h6.98v-7.05ZM56.351 77.53h-6.98v6.98h6.98v-6.98ZM56.351 70.48h-6.98v7.05h6.98v-7.05ZM56.351 63.5h-6.98v6.98h6.98V63.5ZM56.351 56.45h-6.98v7.05h6.98v-7.05ZM56.351 49.47h-6.98v6.98h6.98v-6.98ZM56.351 42.42h-6.98v7.05h6.98v-7.05ZM56.351 35.37h-6.98v7.05h6.98v-7.05Z"/><path fill="#FFEFD3" d="M56.351 28.39h-6.98v6.98h6.98v-6.98ZM56.351 21.34h-6.98v7.05h6.98v-7.05Z"/><path fill="#B8602D" d="M56.351 14.36h-6.98v6.98h6.98v-6.98Z"/><path fill="#000" d="M56.351 7.3h-6.98v7.05h6.98V7.3ZM49.37 196.83h-7.05v7.04h7.05v-7.04ZM49.37 189.84h-7.05v6.99h7.05v-6.99Z"/><path fill="#B8602D" d="M49.37 182.8h-7.05v7.04h7.05v-7.04ZM49.37 175.82h-7.05v6.98h7.05v-6.98Z"/><path fill="#000" d="M49.37 168.76h-7.05v7.05h7.05v-7.05ZM49.37 126.67h-7.05v6.98h7.05v-6.98Z"/><path fill="#8A0391" d="M49.37 119.62h-7.05v7.05h7.05v-7.05ZM49.37 112.64h-7.05v6.98h7.05v-6.98Z"/><path fill="#000" d="M49.37 105.59h-7.05v7.05h7.05v-7.05ZM49.37 42.42h-7.05v7.05h7.05v-7.05Z"/><path fill="#B8602D" d="M49.37 35.37h-7.05v7.05h7.05v-7.05Z"/><path fill="#B8602D" d="M49.37 28.39h-7.05v6.98h7.05v-6.98Z"/><path fill="#000" d="M49.37 21.34h-7.05v7.05h7.05v-7.05ZM49.37 14.36h-7.05v6.98h7.05v-6.98ZM42.32 182.8h-7.05v7.04h7.05v-7.04Z"/><path fill="#B8602D" d="M42.32 175.82h-7.05v6.98h7.05v-6.98ZM42.32 168.76h-7.05v7.05h7.05v-7.05Z"/><path fill="#000" d="M42.32 161.79h-7.05v6.98h7.05v-6.98ZM42.32 126.67h-7.05v6.98h7.05v-6.98Z"/><path fill="#873810" d="M42.32 119.62h-7.05v7.05h7.05v-7.05Z"/><path fill="#000" d="M42.32 112.64h-7.05v6.98h7.05v-6.98Z"/><path fill="#873810" d="M42.32 105.59h-7.05v7.05h7.05v-7.05Z"/><path fill="#000" d="M42.32 49.47h-7.05v6.98h7.05v-6.98Z"/><path fill="#B8602D" d="M42.32 42.42h-7.05v7.05h7.05v-7.05ZM42.32 35.37h-7.05v7.05h7.05v-7.05Z"/><path fill="#000" d="M42.32 28.39h-7.05v6.98h7.05v-6.98ZM35.271 175.82h-6.98v6.98h6.98v-6.98Z"/><path fill="#B8602D" d="M35.271 168.76h-6.98v7.05h6.98v-7.05Z"/><path fill="#B8602D" d="M35.271 161.79h-6.98v6.98h6.98v-6.98Z"/><path fill="#000" d="M35.271 154.73h-6.98v7.05h6.98v-7.05ZM35.271 147.69h-6.98v7.04h6.98v-7.04ZM35.271 126.67h-6.98v6.98h6.98v-6.98Z"/><path fill="#873810" d="M35.271 119.62h-6.98v7.05h6.98v-7.05Z"/><path fill="#F49364" d="M35.271 112.64h-6.98v6.98h6.98v-6.98Z"/><path fill="#000" d="M35.271 105.59h-6.98v7.05h6.98v-7.05ZM35.271 63.5h-6.98v6.98h6.98V63.5ZM35.271 56.45h-6.98v7.05h6.98v-7.05Z"/><path fill="#B8602D" d="M35.271 49.47h-6.98v6.98h6.98v-6.98ZM35.271 42.42h-6.98v7.05h6.98v-7.05Z"/><path fill="#000" d="M35.271 35.37h-6.98v7.05h6.98v-7.05ZM28.29 168.76h-7.05v7.05h7.05v-7.05Z"/><path fill="#B8602D" d="M28.29 161.79h-7.05v6.98h7.05v-6.98ZM28.29 154.73h-7.05v7.05h7.05v-7.05ZM28.29 147.69h-7.05v7.04h7.05v-7.04Z"/><path fill="#000" d="M28.29 140.7h-7.05v6.98h7.05v-6.98Z"/><path fill="#000" d="M28.29 133.65h-7.05v7.05h7.05v-7.05ZM28.29 126.67h-7.05v6.98h7.05v-6.98ZM28.29 119.62h-7.05v7.05h7.05v-7.05Z"/><path fill="#873810" d="M28.29 112.64h-7.05v6.98h7.05v-6.98Z"/><path fill="#F49364" d="M28.29 105.59h-7.05v7.05h7.05v-7.05Z"/><path fill="#000" d="M28.29 98.61h-7.05v6.98h7.05v-6.98ZM28.29 91.56h-7.05v7.05h7.05v-7.05ZM28.29 84.51h-7.05v7.05h7.05v-7.05ZM28.29 77.53h-7.05v6.98h7.05v-6.98ZM28.29 70.48h-7.05v7.05h7.05v-7.05Z"/><path fill="#B8602D" d="M28.29 63.5h-7.05v6.98h7.05V63.5ZM28.29 56.45h-7.05v7.05h7.05v-7.05ZM28.29 49.47h-7.05v6.98h7.05v-6.98Z"/><path fill="#000" d="M28.29 42.42h-7.05v7.05h7.05v-7.05ZM21.24 161.79h-6.98v6.98h6.98v-6.98ZM21.24 154.73h-6.98v7.05h6.98v-7.05Z"/><path fill="#B8602D" d="M21.24 147.69h-6.98v7.04h6.98v-7.04ZM21.24 140.7h-6.98v6.98h6.98v-6.98Z"/><path fill="#B8602D" d="M21.24 133.65h-6.98v7.05h6.98v-7.05ZM21.24 126.67h-6.98v6.98h6.98v-6.98ZM21.24 119.62h-6.98v7.05h6.98v-7.05Z"/><path fill="#873810" d="M21.24 112.64h-6.98v6.98h6.98v-6.98ZM21.24 105.59h-6.98v7.05h6.98v-7.05Z"/><path fill="#B8602D" d="M21.24 98.61h-6.98v6.98h6.98v-6.98ZM21.24 91.56h-6.98v7.05h6.98v-7.05ZM21.24 84.51h-6.98v7.05h6.98v-7.05ZM21.24 77.53h-6.98v6.98h6.98v-6.98ZM21.24 70.48h-6.98v7.05h6.98v-7.05ZM21.24 63.5h-6.98v6.98h6.98V63.5Z"/><path fill="#000" d="M21.24 56.45h-6.98v7.05h6.98v-7.05ZM21.24 49.47h-6.98v6.98h6.98v-6.98ZM14.26 147.69H7.21v7.04h7.05v-7.04ZM14.26 140.7H7.21v6.98h7.05v-6.98Z"/><path fill="#000" d="M14.26 133.65H7.21v7.05h7.05v-7.05ZM14.26 126.67H7.21v6.98h7.05v-6.98Z"/><path fill="#F49364" d="M14.26 119.62H7.21v7.05h7.05v-7.05ZM14.26 112.64H7.21v6.98h7.05v-6.98ZM14.26 105.59H7.21v7.05h7.05v-7.05Z"/><path fill="#000" d="M14.26 98.61H7.21v6.98h7.05v-6.98ZM14.26 91.56H7.21v7.05h7.05v-7.05ZM14.26 84.51H7.21v7.05h7.05v-7.05ZM14.26 77.53H7.21v6.98h7.05v-6.98ZM14.26 70.48H7.21v7.05h7.05v-7.05ZM14.26 63.5H7.21v6.98h7.05V63.5ZM7.21 119.62H.23v7.05h6.98v-7.05ZM7.21 112.64H.23v6.98h6.98v-6.98ZM7.21 105.59H.23v7.05h6.98v-7.05Z"/></svg>