<svg xmlns="http://www.w3.org/2000/svg" width="208" height="233" fill="none"><path fill="#000" d="M207.089 168.96h-6.98v7.06h6.98v-7.06ZM207.089 161.98h-6.98v6.98h6.98v-6.98ZM207.089 154.92h-6.98v7.06h6.98v-7.06Z"/><path fill="#000" d="M207.089 147.87h-6.98v7.05h6.98v-7.05ZM207.089 140.88h-6.98v6.98h6.98v-6.98Z"/><path fill="#000" d="M207.089 133.83h-6.98v7.06h6.98v-7.06ZM207.089 126.85h-6.98v6.98h6.98v-6.98Z"/><path fill="#000" d="M207.089 119.79h-6.98v7.06h6.98v-7.06ZM207.089 112.81h-6.98v6.98h6.98v-6.98ZM207.089 105.75h-6.98v7.06h6.98v-7.06ZM207.089 98.77h-6.98v6.98h6.98v-6.98ZM207.089 91.71h-6.98v7.06h6.98v-7.06Z"/><path fill="#000" d="M207.089 84.66h-6.98v7.06h6.98v-7.06ZM207.089 56.58h-6.98v7.06h6.98v-7.06ZM207.089 49.6h-6.98v6.98h6.98V49.6ZM207.089 42.54h-6.98v7.06h6.98v-7.06Z"/><path fill="#000" d="M207.089 35.49h-6.98v7.06h6.98v-7.06ZM200.12 176.02h-7.06V183h7.06v-6.98Z"/><path fill="#577C57" d="M200.12 168.96h-7.06v7.06h7.06v-7.06ZM200.12 161.98h-7.06v6.98h7.06v-6.98ZM200.12 154.92h-7.06v7.06h7.06v-7.06Z"/><path fill="#577C57" d="M200.12 147.87h-7.06v7.05h7.06v-7.05ZM200.12 140.88h-7.06v6.98h7.06v-6.98Z"/><path fill="#668466" d="M200.12 133.83h-7.06v7.06h7.06v-7.06ZM200.12 126.85h-7.06v6.98h7.06v-6.98Z"/><path fill="#668466" d="M200.12 119.79h-7.06v7.06h7.06v-7.06Z"/><path fill="#577C57" d="M200.12 112.81h-7.06v6.98h7.06v-6.98ZM200.12 105.75h-7.06v7.06h7.06v-7.06ZM200.12 98.77h-7.06v6.98h7.06v-6.98ZM200.12 91.71h-7.06v7.06h7.06v-7.06Z"/><path fill="#577C57" d="M200.12 84.66h-7.06v7.06h7.06v-7.06Z"/><path fill="#000" d="M200.12 77.68h-7.06v6.98h7.06v-6.98ZM200.12 70.62h-7.06v7.06h7.06v-7.06ZM200.12 63.64h-7.06v6.98h7.06v-6.98Z"/><path fill="#668466" d="M200.12 56.58h-7.06v7.06h7.06v-7.06Z"/><path fill="#464" d="M200.12 49.6h-7.06v6.98h7.06V49.6ZM200.12 42.54h-7.06v7.06h7.06v-7.06Z"/><path fill="#668466" d="M200.12 35.49h-7.06v7.06h7.06v-7.06Z"/><path fill="#000" d="M200.12 28.51h-7.06v6.98h7.06v-6.98ZM200.12 21.45h-7.06v7.06h7.06v-7.06ZM193.06 176.02h-7.05V183h7.05v-6.98Z"/><path fill="#464" d="M193.06 168.96h-7.05v7.06h7.05v-7.06Z"/><path fill="#668466" d="M193.06 161.98h-7.05v6.98h7.05v-6.98ZM193.06 154.92h-7.05v7.06h7.05v-7.06Z"/><path fill="#668466" d="M193.06 147.87h-7.05v7.05h7.05v-7.05ZM193.06 140.88h-7.05v6.98h7.05v-6.98Z"/><path fill="#668466" d="M193.06 133.83h-7.05v7.06h7.05v-7.06ZM193.06 126.85h-7.05v6.98h7.05v-6.98Z"/><path fill="#668466" d="M193.06 119.79h-7.05v7.06h7.05v-7.06ZM193.06 112.81h-7.05v6.98h7.05v-6.98ZM193.06 105.75h-7.05v7.06h7.05v-7.06ZM193.06 98.77h-7.05v6.98h7.05v-6.98ZM193.06 91.71h-7.05v7.06h7.05v-7.06Z"/><path fill="#577C57" d="M193.06 84.66h-7.05v7.06h7.05v-7.06Z"/><path fill="#464" d="M193.06 77.68h-7.05v6.98h7.05v-6.98Z"/><path fill="#668466" d="M193.06 70.62h-7.05v7.06h7.05v-7.06ZM193.06 63.64h-7.05v6.98h7.05v-6.98Z"/><path fill="#464" d="M193.06 56.58h-7.05v7.06h7.05v-7.06Z"/><path fill="#668466" d="M193.06 49.6h-7.05v6.98h7.05V49.6ZM193.06 42.54h-7.05v7.06h7.05v-7.06Z"/><path fill="#464" d="M193.06 35.49h-7.05v7.06h7.05v-7.06Z"/><path fill="#668466" d="M193.06 28.51h-7.05v6.98h7.05v-6.98Z"/><path fill="#000" d="M193.06 21.45h-7.05v7.06h7.05v-7.06ZM186 176.02h-6.99V183H186v-6.98Z"/><path fill="#464" d="M186 168.96h-6.99v7.06H186v-7.06ZM186 161.98h-6.99v6.98H186v-6.98ZM186 154.92h-6.99v7.06H186v-7.06Z"/><path fill="#668466" d="M186 147.87h-6.99v7.05H186v-7.05ZM186 140.88h-6.99v6.98H186v-6.98Z"/><path fill="#668466" d="M186 133.83h-6.99v7.06H186v-7.06ZM186 126.85h-6.99v6.98H186v-6.98Z"/><path fill="#668466" d="M186 119.79h-6.99v7.06H186v-7.06ZM186 112.81h-6.99v6.98H186v-6.98ZM186 105.75h-6.99v7.06H186v-7.06ZM186 98.77h-6.99v6.98H186v-6.98ZM186 91.71h-6.99v7.06H186v-7.06Z"/><path fill="#668466" d="M186 84.66h-6.99v7.06H186v-7.06Z"/><path fill="#464" d="M186 77.68h-6.99v6.98H186v-6.98Z"/><path fill="#668466" d="M186 70.62h-6.99v7.06H186v-7.06ZM186 63.64h-6.99v6.98H186v-6.98ZM186 56.58h-6.99v7.06H186v-7.06Z"/><path fill="#464" d="M186 49.6h-6.99v6.98H186V49.6Z"/><path fill="#668466" d="M186 42.54h-6.99v7.06H186v-7.06Z"/><path fill="#464" d="M186 35.49h-6.99v7.06H186v-7.06Z"/><path fill="#668466" d="M186 28.51h-6.99v6.98H186v-6.98Z"/><path fill="#000" d="M186 21.45h-6.99v7.06H186v-7.06ZM179.02 176.02h-7.05V183h7.05v-6.98Z"/><path fill="#464" d="M179.02 168.96h-7.05v7.06h7.05v-7.06ZM179.02 161.98h-7.05v6.98h7.05v-6.98ZM179.02 154.92h-7.05v7.06h7.05v-7.06Z"/><path fill="#464" d="M179.02 147.87h-7.05v7.05h7.05v-7.05Z"/><path fill="#668466" d="M179.02 140.88h-7.05v6.98h7.05v-6.98Z"/><path fill="#668466" d="M179.02 133.83h-7.05v7.06h7.05v-7.06ZM179.02 126.85h-7.05v6.98h7.05v-6.98Z"/><path fill="#000" d="M179.02 119.79h-7.05v7.06h7.05v-7.06ZM179.02 112.81h-7.05v6.98h7.05v-6.98ZM179.02 105.75h-7.05v7.06h7.05v-7.06ZM179.02 98.77h-7.05v6.98h7.05v-6.98ZM179.02 91.71h-7.05v7.06h7.05v-7.06Z"/><path fill="#668466" d="M179.02 84.66h-7.05v7.06h7.05v-7.06Z"/><path fill="#464" d="M179.02 77.68h-7.05v6.98h7.05v-6.98Z"/><path fill="#000" d="M179.02 70.62h-7.05v7.06h7.05v-7.06ZM179.02 63.64h-7.05v6.98h7.05v-6.98ZM179.02 56.58h-7.05v7.06h7.05v-7.06ZM179.02 49.6h-7.05v6.98h7.05V49.6Z"/><path fill="#668466" d="M179.02 42.54h-7.05v7.06h7.05v-7.06Z"/><path fill="#668466" d="M179.02 35.49h-7.05v7.06h7.05v-7.06ZM179.02 28.51h-7.05v6.98h7.05v-6.98Z"/><path fill="#000" d="M179.02 21.45h-7.05v7.06h7.05v-7.06ZM171.959 225.19h-6.98v6.98h6.98v-6.98ZM171.959 218.13h-6.98v7.06h6.98v-7.06ZM171.959 176.02h-6.98V183h6.98v-6.98Z"/><path fill="#464" d="M171.959 168.96h-6.98v7.06h6.98v-7.06ZM171.959 161.98h-6.98v6.98h6.98v-6.98ZM171.959 154.92h-6.98v7.06h6.98v-7.06Z"/><path fill="#464" d="M171.959 147.87h-6.98v7.05h6.98v-7.05ZM171.959 140.88h-6.98v6.98h6.98v-6.98Z"/><path fill="#464" d="M171.959 133.83h-6.98v7.06h6.98v-7.06Z"/><path fill="#000" d="M171.959 126.85h-6.98v6.98h6.98v-6.98Z"/><path fill="#8ABC8A" d="M171.959 119.79h-6.98v7.06h6.98v-7.06ZM171.959 112.81h-6.98v6.98h6.98v-6.98ZM171.959 105.75h-6.98v7.06h6.98v-7.06ZM171.959 98.77h-6.98v6.98h6.98v-6.98ZM171.959 91.71h-6.98v7.06h6.98v-7.06Z"/><path fill="#000" d="M171.959 84.66h-6.98v7.06h6.98v-7.06Z"/><path fill="#464" d="M171.959 77.68h-6.98v6.98h6.98v-6.98Z"/><path fill="#000" d="M171.959 70.62h-6.98v7.06h6.98v-7.06Z"/><path fill="#969696" d="M171.959 63.64h-6.98v6.98h6.98v-6.98ZM171.959 56.58h-6.98v7.06h6.98v-7.06Z"/><path fill="#000" d="M171.959 49.6h-6.98v6.98h6.98V49.6Z"/><path fill="#668466" d="M171.959 42.54h-6.98v7.06h6.98v-7.06Z"/><path fill="#668466" d="M171.959 35.49h-6.98v7.06h6.98v-7.06Z"/><path fill="#000" d="M171.959 28.51h-6.98v6.98h6.98v-6.98ZM164.98 225.19h-7.06v6.98h7.06v-6.98Z"/><path fill="#724107" d="M164.98 218.13h-7.06v7.06h7.06v-7.06Z"/><path fill="#000" d="M164.98 211.15h-7.06v6.98h7.06v-6.98ZM164.98 204.09h-7.06v7.06h7.06v-7.06ZM164.98 168.96h-7.06v7.06h7.06v-7.06Z"/><path fill="#464" d="M164.98 161.98h-7.06v6.98h7.06v-6.98ZM164.98 154.92h-7.06v7.06h7.06v-7.06Z"/><path fill="#464" d="M164.98 147.87h-7.06v7.05h7.06v-7.05ZM164.98 140.88h-7.06v6.98h7.06v-6.98Z"/><path fill="#000" d="M164.98 133.83h-7.06v7.06h7.06v-7.06Z"/><path fill="#9DCF9D" d="M164.98 126.85h-7.06v6.98h7.06v-6.98Z"/><path fill="#9DCF9D" d="M164.98 119.79h-7.06v7.06h7.06v-7.06ZM164.98 112.81h-7.06v6.98h7.06v-6.98ZM164.98 105.75h-7.06v7.06h7.06v-7.06ZM164.98 98.77h-7.06v6.98h7.06v-6.98Z"/><path fill="#8ABC8A" d="M164.98 91.71h-7.06v7.06h7.06v-7.06Z"/><path fill="#73C6C6" d="M164.98 84.66h-7.06v7.06h7.06v-7.06Z"/><path fill="#000" d="M164.98 77.68h-7.06v6.98h7.06v-6.98ZM164.98 70.62h-7.06v7.06h7.06v-7.06Z"/><path fill="#969696" d="M164.98 63.64h-7.06v6.98h7.06v-6.98ZM164.98 56.58h-7.06v7.06h7.06v-7.06ZM164.98 49.6h-7.06v6.98h7.06V49.6Z"/><path fill="#000" d="M164.98 42.54h-7.06v7.06h7.06v-7.06Z"/><path fill="#000" d="M164.98 35.49h-7.06v7.06h7.06v-7.06ZM157.919 225.19h-6.98v6.98h6.98v-6.98Z"/><path fill="#724107" d="M157.919 218.13h-6.98v7.06h6.98v-7.06Z"/><path fill="#4C3A1F" d="M157.919 211.15h-6.98v6.98h6.98v-6.98ZM157.919 204.09h-6.98v7.06h6.98v-7.06Z"/><path fill="#000" d="M157.919 197.04h-6.98v7.05h6.98v-7.05Z"/><path fill="#000" d="M157.919 190.05h-6.98v6.99h6.98v-6.99Z"/><path fill="#000" d="M157.919 183.01h-6.98v7.05h6.98v-7.05ZM157.919 176.02h-6.98V183h6.98v-6.98ZM157.919 168.96h-6.98v7.06h6.98v-7.06ZM157.919 161.98h-6.98v6.98h6.98v-6.98ZM157.919 154.92h-6.98v7.06h6.98v-7.06Z"/><path fill="#464" d="M157.919 147.87h-6.98v7.05h6.98v-7.05Z"/><path fill="#000" d="M157.919 140.88h-6.98v6.98h6.98v-6.98Z"/><path fill="#668466" d="M157.919 133.83h-6.98v7.06h6.98v-7.06ZM157.919 126.85h-6.98v6.98h6.98v-6.98Z"/><path fill="#668466" d="M157.919 119.79h-6.98v7.06h6.98v-7.06ZM157.919 112.81h-6.98v6.98h6.98v-6.98Z"/><path fill="#9DCF9D" d="M157.919 105.75h-6.98v7.06h6.98v-7.06ZM157.919 98.77h-6.98v6.98h6.98v-6.98Z"/><path fill="#8ABC8A" d="M157.919 91.71h-6.98v7.06h6.98v-7.06Z"/><path fill="#9FF5F7" d="M157.919 84.66h-6.98v7.06h6.98v-7.06Z"/><path fill="#73C6C6" d="M157.919 77.68h-6.98v6.98h6.98v-6.98Z"/><path fill="#969696" d="M157.919 70.62h-6.98v7.06h6.98v-7.06ZM157.919 63.64h-6.98v6.98h6.98v-6.98ZM157.919 56.58h-6.98v7.06h6.98v-7.06Z"/><path fill="#FFD8AE" d="M157.919 49.6h-6.98v6.98h6.98V49.6Z"/><path fill="#969696" d="M157.919 42.54h-6.98v7.06h6.98v-7.06Z"/><path fill="#000" d="M157.919 35.49h-6.98v7.06h6.98v-7.06ZM157.919 28.51h-6.98v6.98h6.98v-6.98ZM157.919 21.45h-6.98v7.06h6.98v-7.06ZM150.95 225.19h-7.06v6.98h7.06v-6.98Z"/><path fill="#724107" d="M150.95 218.13h-7.06v7.06h7.06v-7.06Z"/><path fill="#4C3A1F" d="M150.95 211.15h-7.06v6.98h7.06v-6.98ZM150.95 204.09h-7.06v7.06h7.06v-7.06ZM150.95 197.04h-7.06v7.05h7.06v-7.05Z"/><path fill="#4C3A1F" d="M150.95 190.05h-7.06v6.99h7.06v-6.99Z"/><path fill="#4C3A1F" d="M150.95 183.01h-7.06v7.05h7.06v-7.05Z"/><path fill="#634D27" d="M150.95 176.02h-7.06V183h7.06v-6.98ZM150.95 168.96h-7.06v7.06h7.06v-7.06ZM150.95 161.98h-7.06v6.98h7.06v-6.98ZM150.95 154.92h-7.06v7.06h7.06v-7.06Z"/><path fill="#000" d="M150.95 147.87h-7.06v7.05h7.06v-7.05ZM150.95 140.88h-7.06v6.98h7.06v-6.98Z"/><path fill="#FFD8AE" d="M150.95 133.83h-7.06v7.06h7.06v-7.06ZM150.95 126.85h-7.06v6.98h7.06v-6.98Z"/><path fill="#FFD8AE" d="M150.95 119.79h-7.06v7.06h7.06v-7.06Z"/><path fill="#668466" d="M150.95 112.81h-7.06v6.98h7.06v-6.98Z"/><path fill="#9DCF9D" d="M150.95 105.75h-7.06v7.06h7.06v-7.06Z"/><path fill="#8ABC8A" d="M150.95 98.77h-7.06v6.98h7.06v-6.98Z"/><path fill="#9FF5F7" d="M150.95 91.71h-7.06v7.06h7.06v-7.06Z"/><path fill="#9FF5F7" d="M150.95 84.66h-7.06v7.06h7.06v-7.06Z"/><path fill="#9FF5F7" d="M150.95 77.68h-7.06v6.98h7.06v-6.98Z"/><path fill="#73C6C6" d="M150.95 70.62h-7.06v7.06h7.06v-7.06ZM150.95 63.64h-7.06v6.98h7.06v-6.98Z"/><path fill="#DBAB7B" d="M150.95 56.58h-7.06v7.06h7.06v-7.06ZM150.95 49.6h-7.06v6.98h7.06V49.6Z"/><path fill="#969696" d="M150.95 42.54h-7.06v7.06h7.06v-7.06Z"/><path fill="#969696" d="M150.95 35.49h-7.06v7.06h7.06v-7.06ZM150.95 28.51h-7.06v6.98h7.06v-6.98Z"/><path fill="#000" d="M150.95 21.45h-7.06v7.06h7.06v-7.06Z"/><path fill="#000" d="M150.95 14.47h-7.06v6.98h7.06v-6.98ZM143.89 225.19h-7.05v6.98h7.05v-6.98ZM143.89 218.13h-7.05v7.06h7.05v-7.06ZM143.89 211.15h-7.05v6.98h7.05v-6.98Z"/><path fill="#4C3A1F" d="M143.89 204.09h-7.05v7.06h7.05v-7.06ZM143.89 197.04h-7.05v7.05h7.05v-7.05Z"/><path fill="#634D27" d="M143.89 190.05h-7.05v6.99h7.05v-6.99Z"/><path fill="#634D27" d="M143.89 183.01h-7.05v7.05h7.05v-7.05ZM143.89 176.02h-7.05V183h7.05v-6.98ZM143.89 168.96h-7.05v7.06h7.05v-7.06ZM143.89 161.98h-7.05v6.98h7.05v-6.98ZM143.89 154.92h-7.05v7.06h7.05v-7.06Z"/><path fill="#4C3A1F" d="M143.89 147.87h-7.05v7.05h7.05v-7.05Z"/><path fill="#8ABC8A" d="M143.89 140.88h-7.05v6.98h7.05v-6.98Z"/><path fill="#FFD8AE" d="M143.89 133.83h-7.05v7.06h7.05v-7.06ZM143.89 126.85h-7.05v6.98h7.05v-6.98Z"/><path fill="#FFD8AE" d="M143.89 119.79h-7.05v7.06h7.05v-7.06Z"/><path fill="#9DCF9D" d="M143.89 112.81h-7.05v6.98h7.05v-6.98ZM143.89 105.75h-7.05v7.06h7.05v-7.06Z"/><path fill="#9FF5F7" d="M143.89 98.77h-7.05v6.98h7.05v-6.98ZM143.89 91.71h-7.05v7.06h7.05v-7.06Z"/><path fill="#73C6C6" d="M143.89 84.66h-7.05v7.06h7.05v-7.06Z"/><path fill="#9FF5F7" d="M143.89 77.68h-7.05v6.98h7.05v-6.98ZM143.89 70.62h-7.05v7.06h7.05v-7.06Z"/><path fill="#73C6C6" d="M143.89 63.64h-7.05v6.98h7.05v-6.98Z"/><path fill="#FFD8AE" d="M143.89 56.58h-7.05v7.06h7.05v-7.06ZM143.89 49.6h-7.05v6.98h7.05V49.6ZM143.89 42.54h-7.05v7.06h7.05v-7.06Z"/><path fill="#AFAFAF" d="M143.89 35.49h-7.05v7.06h7.05v-7.06ZM143.89 28.51h-7.05v6.98h7.05v-6.98Z"/><path fill="#969696" d="M143.89 21.45h-7.05v7.06h7.05v-7.06Z"/><path fill="#969696" d="M143.89 14.47h-7.05v6.98h7.05v-6.98Z"/><path fill="#000" d="M143.89 7.41h-7.05v7.06h7.05V7.41ZM136.83 204.09h-6.98v7.06h6.98v-7.06ZM136.83 197.04h-6.98v7.05h6.98v-7.05Z"/><path fill="#634D27" d="M136.83 190.05h-6.98v6.99h6.98v-6.99Z"/><path fill="#634D27" d="M136.83 183.01h-6.98v7.05h6.98v-7.05ZM136.83 176.02h-6.98V183h6.98v-6.98ZM136.83 168.96h-6.98v7.06h6.98v-7.06ZM136.83 161.98h-6.98v6.98h6.98v-6.98ZM136.83 154.92h-6.98v7.06h6.98v-7.06Z"/><path fill="#4C3A1F" d="M136.83 147.87h-6.98v7.05h6.98v-7.05Z"/><path fill="#8ABC8A" d="M136.83 140.88h-6.98v6.98h6.98v-6.98Z"/><path fill="#9DCF9D" d="M136.83 133.83h-6.98v7.06h6.98v-7.06ZM136.83 126.85h-6.98v6.98h6.98v-6.98Z"/><path fill="#FFD8AE" d="M136.83 119.79h-6.98v7.06h6.98v-7.06Z"/><path fill="#9DCF9D" d="M136.83 112.81h-6.98v6.98h6.98v-6.98Z"/><path fill="#73C6C6" d="M136.83 105.75h-6.98v7.06h6.98v-7.06Z"/><path fill="#9FF5F7" d="M136.83 98.77h-6.98v6.98h6.98v-6.98ZM136.83 91.71h-6.98v7.06h6.98v-7.06Z"/><path fill="#9FF5F7" d="M136.83 84.66h-6.98v7.06h6.98v-7.06Z"/><path fill="#73C6C6" d="M136.83 77.68h-6.98v6.98h6.98v-6.98ZM136.83 70.62h-6.98v7.06h6.98v-7.06Z"/><path fill="#FFD8AE" d="M136.83 63.64h-6.98v6.98h6.98v-6.98ZM136.83 56.58h-6.98v7.06h6.98v-7.06Z"/><path fill="#000" d="M136.83 49.6h-6.98v6.98h6.98V49.6Z"/><path fill="#FFD8AE" d="M136.83 42.54h-6.98v7.06h6.98v-7.06Z"/><path fill="#AFAFAF" d="M136.83 35.49h-6.98v7.06h6.98v-7.06ZM136.83 28.51h-6.98v6.98h6.98v-6.98ZM136.83 21.45h-6.98v7.06h6.98v-7.06Z"/><path fill="#969696" d="M136.83 14.47h-6.98v6.98h6.98v-6.98Z"/><path fill="#000" d="M136.83 7.41h-6.98v7.06h6.98V7.41ZM129.85 197.04h-7.06v7.05h7.06v-7.05Z"/><path fill="#000" d="M129.85 190.05h-7.06v6.99h7.06v-6.99Z"/><path fill="#000" d="M129.85 183.01h-7.06v7.05h7.06v-7.05Z"/><path fill="#634D27" d="M129.85 176.02h-7.06V183h7.06v-6.98ZM129.85 168.96h-7.06v7.06h7.06v-7.06ZM129.85 161.98h-7.06v6.98h7.06v-6.98ZM129.85 154.92h-7.06v7.06h7.06v-7.06Z"/><path fill="#4C3A1F" d="M129.85 147.87h-7.06v7.05h7.06v-7.05Z"/><path fill="#8ABC8A" d="M129.85 140.88h-7.06v6.98h7.06v-6.98Z"/><path fill="#9DCF9D" d="M129.85 133.83h-7.06v7.06h7.06v-7.06ZM129.85 126.85h-7.06v6.98h7.06v-6.98Z"/><path fill="#9DCF9D" d="M129.85 119.79h-7.06v7.06h7.06v-7.06ZM129.85 112.81h-7.06v6.98h7.06v-6.98Z"/><path fill="#8ABC8A" d="M129.85 105.75h-7.06v7.06h7.06v-7.06Z"/><path fill="#73C6C6" d="M129.85 98.77h-7.06v6.98h7.06v-6.98Z"/><path fill="#9FF5F7" d="M129.85 91.71h-7.06v7.06h7.06v-7.06Z"/><path fill="#9FF5F7" d="M129.85 84.66h-7.06v7.06h7.06v-7.06Z"/><path fill="#9FF5F7" d="M129.85 77.68h-7.06v6.98h7.06v-6.98Z"/><path fill="#73C6C6" d="M129.85 70.62h-7.06v7.06h7.06v-7.06Z"/><path fill="#FFD8AE" d="M129.85 63.64h-7.06v6.98h7.06v-6.98ZM129.85 56.58h-7.06v7.06h7.06v-7.06ZM129.85 49.6h-7.06v6.98h7.06V49.6ZM129.85 42.54h-7.06v7.06h7.06v-7.06Z"/><path fill="#AFAFAF" d="M129.85 35.49h-7.06v7.06h7.06v-7.06ZM129.85 28.51h-7.06v6.98h7.06v-6.98ZM129.85 21.45h-7.06v7.06h7.06v-7.06Z"/><path fill="#969696" d="M129.85 14.47h-7.06v6.98h7.06v-6.98Z"/><path fill="#000" d="M129.85 7.41h-7.06v7.06h7.06V7.41ZM122.79 225.19h-6.98v6.98h6.98v-6.98ZM122.79 218.13h-6.98v7.06h6.98v-7.06ZM122.79 211.15h-6.98v6.98h6.98v-6.98ZM122.79 204.09h-6.98v7.06h6.98v-7.06Z"/><path fill="#4C3A1F" d="M122.79 197.04h-6.98v7.05h6.98v-7.05Z"/><path fill="#634D27" d="M122.79 190.05h-6.98v6.99h6.98v-6.99Z"/><path fill="#634D27" d="M122.79 183.01h-6.98v7.05h6.98v-7.05ZM122.79 176.02h-6.98V183h6.98v-6.98ZM122.79 168.96h-6.98v7.06h6.98v-7.06ZM122.79 161.98h-6.98v6.98h6.98v-6.98Z"/><path fill="#4C3A1F" d="M122.79 154.92h-6.98v7.06h6.98v-7.06Z"/><path fill="#8ABC8A" d="M122.79 147.87h-6.98v7.05h6.98v-7.05ZM122.79 140.88h-6.98v6.98h6.98v-6.98Z"/><path fill="#9DCF9D" d="M122.79 133.83h-6.98v7.06h6.98v-7.06ZM122.79 126.85h-6.98v6.98h6.98v-6.98Z"/><path fill="#9DCF9D" d="M122.79 119.79h-6.98v7.06h6.98v-7.06ZM122.79 112.81h-6.98v6.98h6.98v-6.98Z"/><path fill="#8ABC8A" d="M122.79 105.75h-6.98v7.06h6.98v-7.06ZM122.79 98.77h-6.98v6.98h6.98v-6.98Z"/><path fill="#73C6C6" d="M122.79 91.71h-6.98v7.06h6.98v-7.06Z"/><path fill="#9FF5F7" d="M122.79 84.66h-6.98v7.06h6.98v-7.06Z"/><path fill="#9FF5F7" d="M122.79 77.68h-6.98v6.98h6.98v-6.98Z"/><path fill="#73C6C6" d="M122.79 70.62h-6.98v7.06h6.98v-7.06Z"/><path fill="#FFD8AE" d="M122.79 63.64h-6.98v6.98h6.98v-6.98ZM122.79 56.58h-6.98v7.06h6.98v-7.06ZM122.79 49.6h-6.98v6.98h6.98V49.6ZM122.79 42.54h-6.98v7.06h6.98v-7.06Z"/><path fill="#AFAFAF" d="M122.79 35.49h-6.98v7.06h6.98v-7.06ZM122.79 28.51h-6.98v6.98h6.98v-6.98ZM122.79 21.45h-6.98v7.06h6.98v-7.06Z"/><path fill="#AFAFAF" d="M122.79 14.47h-6.98v6.98h6.98v-6.98Z"/><path fill="#969696" d="M122.79 7.41h-6.98v7.06h6.98V7.41Z"/><path fill="#000" d="M122.79.43h-6.98v6.98h6.98V.43ZM115.81 225.19h-7.06v6.98h7.06v-6.98Z"/><path fill="#724107" d="M115.81 218.13h-7.06v7.06h7.06v-7.06Z"/><path fill="#4C3A1F" d="M115.81 211.15h-7.06v6.98h7.06v-6.98ZM115.81 204.09h-7.06v7.06h7.06v-7.06ZM115.81 197.04h-7.06v7.05h7.06v-7.05Z"/><path fill="#4C3A1F" d="M115.81 190.05h-7.06v6.99h7.06v-6.99Z"/><path fill="#634D27" d="M115.81 183.01h-7.06v7.05h7.06v-7.05ZM115.81 176.02h-7.06V183h7.06v-6.98ZM115.81 168.96h-7.06v7.06h7.06v-7.06ZM115.81 161.98h-7.06v6.98h7.06v-6.98Z"/><path fill="#4C3A1F" d="M115.81 154.92h-7.06v7.06h7.06v-7.06Z"/><path fill="#8ABC8A" d="M115.81 147.87h-7.06v7.05h7.06v-7.05Z"/><path fill="#9DCF9D" d="M115.81 140.88h-7.06v6.98h7.06v-6.98Z"/><path fill="#9FF5F7" d="M115.81 133.83h-7.06v7.06h7.06v-7.06Z"/><path fill="#9DCF9D" d="M115.81 126.85h-7.06v6.98h7.06v-6.98Z"/><path fill="#9DCF9D" d="M115.81 119.79h-7.06v7.06h7.06v-7.06Z"/><path fill="#9FF5F7" d="M115.81 112.81h-7.06v6.98h7.06v-6.98Z"/><path fill="#9DCF9D" d="M115.81 105.75h-7.06v7.06h7.06v-7.06ZM115.81 98.77h-7.06v6.98h7.06v-6.98Z"/><path fill="#73C6C6" d="M115.81 91.71h-7.06v7.06h7.06v-7.06Z"/><path fill="#9FF5F7" d="M115.81 84.66h-7.06v7.06h7.06v-7.06Z"/><path fill="#9FF5F7" d="M115.81 77.68h-7.06v6.98h7.06v-6.98Z"/><path fill="#73C6C6" d="M115.81 70.62h-7.06v7.06h7.06v-7.06Z"/><path fill="#FFD8AE" d="M115.81 63.64h-7.06v6.98h7.06v-6.98ZM115.81 56.58h-7.06v7.06h7.06v-7.06Z"/><path fill="#000" d="M115.81 49.6h-7.06v6.98h7.06V49.6Z"/><path fill="#FFD8AE" d="M115.81 42.54h-7.06v7.06h7.06v-7.06Z"/><path fill="#AFAFAF" d="M115.81 35.49h-7.06v7.06h7.06v-7.06ZM115.81 28.51h-7.06v6.98h7.06v-6.98ZM115.81 21.45h-7.06v7.06h7.06v-7.06Z"/><path fill="#AFAFAF" d="M115.81 14.47h-7.06v6.98h7.06v-6.98Z"/><path fill="#969696" d="M115.81 7.41h-7.06v7.06h7.06V7.41Z"/><path fill="#000" d="M115.81.43h-7.06v6.98h7.06V.43ZM108.75 225.19h-6.98v6.98h6.98v-6.98Z"/><path fill="#724107" d="M108.75 218.13h-6.98v7.06h6.98v-7.06Z"/><path fill="#4C3A1F" d="M108.75 211.15h-6.98v6.98h6.98v-6.98ZM108.75 204.09h-6.98v7.06h6.98v-7.06ZM108.75 197.04h-6.98v7.05h6.98v-7.05Z"/><path fill="#4C3A1F" d="M108.75 190.05h-6.98v6.99h6.98v-6.99Z"/><path fill="#4C3A1F" d="M108.75 183.01h-6.98v7.05h6.98v-7.05Z"/><path fill="#634D27" d="M108.75 176.02h-6.98V183h6.98v-6.98ZM108.75 168.96h-6.98v7.06h6.98v-7.06ZM108.75 161.98h-6.98v6.98h6.98v-6.98Z"/><path fill="#4C3A1F" d="M108.75 154.92h-6.98v7.06h6.98v-7.06Z"/><path fill="#668466" d="M108.75 147.87h-6.98v7.05h6.98v-7.05ZM108.75 140.88h-6.98v6.98h6.98v-6.98Z"/><path fill="#668466" d="M108.75 133.83h-6.98v7.06h6.98v-7.06ZM108.75 126.85h-6.98v6.98h6.98v-6.98Z"/><path fill="#668466" d="M108.75 119.79h-6.98v7.06h6.98v-7.06ZM108.75 112.81h-6.98v6.98h6.98v-6.98ZM108.75 105.75h-6.98v7.06h6.98v-7.06ZM108.75 98.77h-6.98v6.98h6.98v-6.98Z"/><path fill="#73C6C6" d="M108.75 91.71h-6.98v7.06h6.98v-7.06Z"/><path fill="#9FF5F7" d="M108.75 84.66h-6.98v7.06h6.98v-7.06Z"/><path fill="#73C6C6" d="M108.75 77.68h-6.98v6.98h6.98v-6.98ZM108.75 70.62h-6.98v7.06h6.98v-7.06Z"/><path fill="#FFD8AE" d="M108.75 63.64h-6.98v6.98h6.98v-6.98ZM108.75 56.58h-6.98v7.06h6.98v-7.06ZM108.75 49.6h-6.98v6.98h6.98V49.6Z"/><path fill="#AFAFAF" d="M108.75 42.54h-6.98v7.06h6.98v-7.06Z"/><path fill="#AFAFAF" d="M108.75 35.49h-6.98v7.06h6.98v-7.06ZM108.75 28.51h-6.98v6.98h6.98v-6.98ZM108.75 21.45h-6.98v7.06h6.98v-7.06Z"/><path fill="#AFAFAF" d="M108.75 14.47h-6.98v6.98h6.98v-6.98ZM108.75 7.41h-6.98v7.06h6.98V7.41Z"/><path fill="#000" d="M108.75.43h-6.98v6.98h6.98V.43ZM101.78 225.19h-7.06v6.98h7.06v-6.98Z"/><path fill="#724107" d="M101.78 218.13h-7.06v7.06h7.06v-7.06ZM101.78 211.15h-7.06v6.98h7.06v-6.98Z"/><path fill="#000" d="M101.78 204.09h-7.06v7.06h7.06v-7.06ZM101.78 197.04h-7.06v7.05h7.06v-7.05Z"/><path fill="#000" d="M101.78 190.05h-7.06v6.99h7.06v-6.99Z"/><path fill="#4C3A1F" d="M101.78 183.01h-7.06v7.05h7.06v-7.05ZM101.78 176.02h-7.06V183h7.06v-6.98ZM101.78 168.96h-7.06v7.06h7.06v-7.06ZM101.78 161.98h-7.06v6.98h7.06v-6.98ZM101.78 154.92h-7.06v7.06h7.06v-7.06Z"/><path fill="#8ABC8A" d="M101.78 147.87h-7.06v7.05h7.06v-7.05Z"/><path fill="#9DCF9D" d="M101.78 140.88h-7.06v6.98h7.06v-6.98Z"/><path fill="#9DCF9D" d="M101.78 133.83h-7.06v7.06h7.06v-7.06ZM101.78 126.85h-7.06v6.98h7.06v-6.98Z"/><path fill="#9DCF9D" d="M101.78 119.79h-7.06v7.06h7.06v-7.06ZM101.78 112.81h-7.06v6.98h7.06v-6.98ZM101.78 105.75h-7.06v7.06h7.06v-7.06Z"/><path fill="#73C6C6" d="M101.78 98.77h-7.06v6.98h7.06v-6.98Z"/><path fill="#9FF5F7" d="M101.78 91.71h-7.06v7.06h7.06v-7.06Z"/><path fill="#9FF5F7" d="M101.78 84.66h-7.06v7.06h7.06v-7.06Z"/><path fill="#73C6C6" d="M101.78 77.68h-7.06v6.98h7.06v-6.98ZM101.78 70.62h-7.06v7.06h7.06v-7.06Z"/><path fill="#969696" d="M101.78 63.64h-7.06v6.98h7.06v-6.98Z"/><path fill="#FFD8AE" d="M101.78 56.58h-7.06v7.06h7.06v-7.06Z"/><path fill="#AFAFAF" d="M101.78 49.6h-7.06v6.98h7.06V49.6ZM101.78 42.54h-7.06v7.06h7.06v-7.06Z"/><path fill="#AFAFAF" d="M101.78 35.49h-7.06v7.06h7.06v-7.06ZM101.78 28.51h-7.06v6.98h7.06v-6.98ZM101.78 21.45h-7.06v7.06h7.06v-7.06Z"/><path fill="#AFAFAF" d="M101.78 14.47h-7.06v6.98h7.06v-6.98Z"/><path fill="#000" d="M101.78 7.41h-7.06v7.06h7.06V7.41ZM94.71 225.19h-6.98v6.98h6.98v-6.98Z"/><path fill="#724107" d="M94.71 218.13h-6.98v7.06h6.98v-7.06Z"/><path fill="#000" d="M94.71 211.15h-6.98v6.98h6.98v-6.98ZM94.71 183.01h-6.98v7.05h6.98v-7.05ZM94.71 176.02h-6.98V183h6.98v-6.98ZM94.71 168.96h-6.98v7.06h6.98v-7.06ZM94.71 161.98h-6.98v6.98h6.98v-6.98ZM94.71 154.92h-6.98v7.06h6.98v-7.06Z"/><path fill="#000" d="M94.71 147.87h-6.98v7.05h6.98v-7.05Z"/><path fill="#9DCF9D" d="M94.71 140.88h-6.98v6.98h6.98v-6.98Z"/><path fill="#9DCF9D" d="M94.71 133.83h-6.98v7.06h6.98v-7.06ZM94.71 126.85h-6.98v6.98h6.98v-6.98Z"/><path fill="#9DCF9D" d="M94.71 119.79h-6.98v7.06h6.98v-7.06ZM94.71 112.81h-6.98v6.98h6.98v-6.98ZM94.71 105.75h-6.98v7.06h6.98v-7.06Z"/><path fill="#73C6C6" d="M94.71 98.77h-6.98v6.98h6.98v-6.98ZM94.71 91.71h-6.98v7.06h6.98v-7.06Z"/><path fill="#73C6C6" d="M94.71 84.66h-6.98v7.06h6.98v-7.06Z"/><path fill="#000" d="M94.71 77.68h-6.98v6.98h6.98v-6.98Z"/><path fill="#969696" d="M94.71 70.62h-6.98v7.06h6.98v-7.06ZM94.71 63.64h-6.98v6.98h6.98v-6.98ZM94.71 56.58h-6.98v7.06h6.98v-7.06ZM94.71 49.6h-6.98v6.98h6.98V49.6Z"/><path fill="#000" d="M94.71 42.54h-6.98v7.06h6.98v-7.06Z"/><path fill="#AFAFAF" d="M94.71 35.49h-6.98v7.06h6.98v-7.06ZM94.71 28.51h-6.98v6.98h6.98v-6.98ZM94.71 21.45h-6.98v7.06h6.98v-7.06Z"/><path fill="#969696" d="M94.71 14.47h-6.98v6.98h6.98v-6.98Z"/><path fill="#000" d="M94.71 7.41h-6.98v7.06h6.98V7.41ZM87.74 225.19h-7.06v6.98h7.06v-6.98ZM87.74 218.13h-7.06v7.06h7.06v-7.06ZM87.74 140.88h-7.06v6.98h7.06v-6.98Z"/><path fill="#9DCF9D" d="M87.74 133.83h-7.06v7.06h7.06v-7.06Z"/><path fill="#668466" d="M87.74 126.85h-7.06v6.98h7.06v-6.98Z"/><path fill="#4F704F" d="M87.74 119.79h-7.06v7.06h7.06v-7.06ZM87.74 112.81h-7.06v6.98h7.06v-6.98Z"/><path fill="#000" d="M87.74 105.75h-7.06v7.06h7.06v-7.06ZM87.74 98.77h-7.06v6.98h7.06v-6.98ZM87.74 91.71h-7.06v7.06h7.06v-7.06Z"/><path fill="#000" d="M87.74 84.66h-7.06v7.06h7.06v-7.06ZM87.74 70.62h-7.06v7.06h7.06v-7.06Z"/><path fill="#969696" d="M87.74 63.64h-7.06v6.98h7.06v-6.98Z"/><path fill="#000" d="M87.74 56.58h-7.06v7.06h7.06v-7.06ZM87.74 49.6h-7.06v6.98h7.06V49.6ZM87.74 28.51h-7.06v6.98h7.06v-6.98Z"/><path fill="#969696" d="M87.74 21.45h-7.06v7.06h7.06v-7.06Z"/><path fill="#000" d="M87.74 14.47h-7.06v6.98h7.06v-6.98ZM80.68 140.88h-7.06v6.98h7.06v-6.98Z"/><path fill="#668466" d="M80.68 133.83h-7.06v7.06h7.06v-7.06ZM80.68 126.85h-7.06v6.98h7.06v-6.98Z"/><path fill="#668466" d="M80.68 119.79h-7.06v7.06h7.06v-7.06Z"/><path fill="#4F704F" d="M80.68 112.81h-7.06v6.98h7.06v-6.98Z"/><path fill="#000" d="M80.68 105.75h-7.06v7.06h7.06v-7.06ZM80.68 70.62h-7.06v7.06h7.06v-7.06ZM80.68 63.64h-7.06v6.98h7.06v-6.98ZM80.68 56.58h-7.06v7.06h7.06v-7.06ZM80.68 35.49h-7.06v7.06h7.06v-7.06Z"/><path fill="#969696" d="M80.68 28.51h-7.06v6.98h7.06v-6.98Z"/><path fill="#000" d="M80.68 21.45h-7.06v7.06h7.06v-7.06ZM73.62 147.87h-6.98v7.05h6.98v-7.05Z"/><path fill="#4F704F" d="M73.62 140.88h-6.98v6.98h6.98v-6.98Z"/><path fill="#668466" d="M73.62 133.83h-6.98v7.06h6.98v-7.06Z"/><path fill="#4F704F" d="M73.62 126.85h-6.98v6.98h6.98v-6.98Z"/><path fill="#668466" d="M73.62 119.79h-6.98v7.06h6.98v-7.06ZM73.62 112.81h-6.98v6.98h6.98v-6.98Z"/><path fill="#000" d="M73.62 105.75h-6.98v7.06h6.98v-7.06ZM73.62 98.77h-6.98v6.98h6.98v-6.98ZM73.62 28.51h-6.98v6.98h6.98v-6.98ZM66.64 147.87h-7.06v7.05h7.06v-7.05Z"/><path fill="#4F704F" d="M66.64 140.88h-7.06v6.98h7.06v-6.98Z"/><path fill="#4F704F" d="M66.64 133.83h-7.06v7.06h7.06v-7.06Z"/><path fill="#668466" d="M66.64 126.85h-7.06v6.98h7.06v-6.98Z"/><path fill="#668466" d="M66.64 119.79h-7.06v7.06h7.06v-7.06Z"/><path fill="#000" d="M66.64 112.81h-7.06v6.98h7.06v-6.98ZM59.58 147.87H52.6v7.05h6.98v-7.05Z"/><path fill="#4F704F" d="M59.58 140.88H52.6v6.98h6.98v-6.98Z"/><path fill="#FFD8AE" d="M59.58 133.83H52.6v7.06h6.98v-7.06ZM59.58 126.85H52.6v6.98h6.98v-6.98Z"/><path fill="#000" d="M59.58 119.79H52.6v7.06h6.98v-7.06ZM52.61 147.87h-7.06v7.05h7.06v-7.05Z"/><path fill="#4F704F" d="M52.61 140.88h-7.06v6.98h7.06v-6.98Z"/><path fill="#FFD8AE" d="M52.61 133.83h-7.06v7.06h7.06v-7.06Z"/><path fill="#000" d="M52.61 126.85h-7.06v6.98h7.06v-6.98ZM45.54 140.88h-6.98v6.98h6.98v-6.98Z"/><path fill="#FFD8AE" d="M45.54 133.83h-6.98v7.06h6.98v-7.06Z"/><path fill="#000" d="M45.54 126.85h-6.98v6.98h6.98v-6.98ZM38.57 140.88h-7.06v6.98h7.06v-6.98Z"/><path fill="#FFD8AE" d="M38.57 133.83h-7.06v7.06h7.06v-7.06Z"/><path fill="#000" d="M38.57 126.85h-7.06v6.98h7.06v-6.98ZM31.51 133.83h-7.06v7.06h7.06v-7.06ZM31.51 126.85h-7.06v6.98h7.06v-6.98ZM24.45 126.85h-6.98v6.98h6.98v-6.98ZM17.47 126.85h-7.06v6.98h7.06v-6.98ZM10.41 126.85H3.43v6.98h6.98v-6.98Z"/><path fill="#594F4F" d="M163.83 100.21h-3.53v3.53h3.53v-3.53ZM160.3 103.74h-3.6v3.6h3.6v-3.6Z"/><path fill="#000" d="M160.3 100.21h-3.6v3.53h3.6v-3.53Z"/><path fill="#594F4F" d="M160.3 96.68h-3.6v3.53h3.6v-3.53ZM156.7 107.34h-3.53v3.53h3.53v-3.53Z"/><path fill="#000" d="M156.7 103.74h-3.53v3.6h3.53v-3.6Z"/><path fill="#594F4F" d="M156.7 100.21h-3.53v3.53h3.53v-3.53ZM153.169 110.86h-3.52v3.6h3.52v-3.6Z"/><path fill="#000" d="M153.169 107.34h-3.52v3.53h3.52v-3.53Z"/><path fill="#594F4F" d="M153.169 103.74h-3.52v3.6h3.52v-3.6Z"/><path fill="#000" d="M149.65 110.86h-3.6v3.6h3.6v-3.6Z"/><path fill="#594F4F" d="M149.65 107.34h-3.6v3.53h3.6v-3.53Z"/><path fill="#000" d="M146.05 114.46h-3.53v3.53h3.53v-3.53ZM142.52 117.99h-3.6v3.53h3.6v-3.53ZM135.389 128.65h-3.53v3.53h3.53v-3.53Z"/><path fill="#000" d="M131.86 132.17h-3.6v3.6h3.6v-3.6ZM74.92 96.68h-3.53v3.53h3.53v-3.53ZM71.39 110.86h-3.53v3.6h3.53v-3.6ZM71.39 96.68h-3.53v3.53h3.53v-3.53ZM67.86 110.86h-3.6v3.6h3.6v-3.6Z"/><path fill="#DDCA6C" d="M67.86 107.34h-3.6v3.53h3.6v-3.53ZM67.86 103.74h-3.6v3.6h3.6v-3.6ZM67.86 100.21h-3.6v3.53h3.6v-3.53Z"/><path fill="#000" d="M67.86 96.68h-3.6v3.53h3.6v-3.53ZM64.27 117.99h-3.53v3.53h3.53v-3.53Z"/><path fill="#DDCA6C" d="M64.27 114.46h-3.53v3.53h3.53v-3.53ZM64.27 110.86h-3.53v3.6h3.53v-3.6Z"/><path fill="#FCE76B" d="M64.27 107.34h-3.53v3.53h3.53v-3.53ZM64.27 103.74h-3.53v3.6h3.53v-3.6Z"/><path fill="#DDCA6C" d="M64.27 100.21h-3.53v3.53h3.53v-3.53Z"/><path fill="#000" d="M64.27 96.68h-3.53v3.53h3.53v-3.53ZM60.74 117.99h-3.53v3.53h3.53v-3.53Z"/><path fill="#DDCA6C" d="M60.74 114.46h-3.53v3.53h3.53v-3.53Z"/><path fill="#FCE76B" d="M60.74 110.86h-3.53v3.6h3.53v-3.6Z"/><path fill="#FCE76B" d="M60.74 107.34h-3.53v3.53h3.53v-3.53ZM60.74 103.74h-3.53v3.6h3.53v-3.6Z"/><path fill="#DDCA6C" d="M60.74 100.21h-3.53v3.53h3.53v-3.53Z"/><path fill="#000" d="M60.74 96.68h-3.53v3.53h3.53v-3.53ZM57.21 125.12h-3.6v3.53h3.6v-3.53Z"/><path fill="#DDCA6C" d="M57.21 121.52h-3.6v3.6h3.6v-3.6ZM57.21 117.99h-3.6v3.53h3.6v-3.53Z"/><path fill="#FCE76B" d="M57.21 114.46h-3.6v3.53h3.6v-3.53ZM57.21 110.86h-3.6v3.6h3.6v-3.6Z"/><path fill="#FCE76B" d="M57.21 107.34h-3.6v3.53h3.6v-3.53ZM57.21 103.74h-3.6v3.6h3.6v-3.6Z"/><path fill="#DDCA6C" d="M57.21 100.21h-3.6v3.53h3.6v-3.53Z"/><path fill="#000" d="M57.21 96.68h-3.6v3.53h3.6v-3.53ZM53.61 125.12h-3.53v3.53h3.53v-3.53Z"/><path fill="#DDCA6C" d="M53.61 121.52h-3.53v3.6h3.53v-3.6Z"/><path fill="#FCE76B" d="M53.61 117.99h-3.53v3.53h3.53v-3.53ZM53.61 114.46h-3.53v3.53h3.53v-3.53ZM53.61 110.86h-3.53v3.6h3.53v-3.6Z"/><path fill="#FCE76B" d="M53.61 107.34h-3.53v3.53h3.53v-3.53ZM53.61 103.74h-3.53v3.6h3.53v-3.6Z"/><path fill="#DDCA6C" d="M53.61 100.21h-3.53v3.53h3.53v-3.53Z"/><path fill="#000" d="M53.61 96.68h-3.53v3.53h3.53v-3.53Z"/><path fill="#DDCA6C" d="M50.08 125.12h-3.6v3.53h3.6v-3.53Z"/><path fill="#FCE76B" d="M50.08 121.52h-3.6v3.6h3.6v-3.6ZM50.08 117.99h-3.6v3.53h3.6v-3.53Z"/><path fill="#E80F42" d="M50.08 114.46h-3.6v3.53h3.6v-3.53Z"/><path fill="#FCE76B" d="M50.08 110.86h-3.6v3.6h3.6v-3.6Z"/><path fill="#FCE76B" d="M50.08 107.34h-3.6v3.53h3.6v-3.53ZM50.08 103.74h-3.6v3.6h3.6v-3.6Z"/><path fill="#DDCA6C" d="M50.08 100.21h-3.6v3.53h3.6v-3.53Z"/><path fill="#000" d="M50.08 96.68h-3.6v3.53h3.6v-3.53Z"/><path fill="#DDCA6C" d="M46.48 125.12h-3.53v3.53h3.53v-3.53Z"/><path fill="#FCE76B" d="M46.48 121.52h-3.53v3.6h3.53v-3.6Z"/><path fill="#E80F42" d="M46.48 117.99h-3.53v3.53h3.53v-3.53ZM46.48 114.46h-3.53v3.53h3.53v-3.53ZM46.48 110.86h-3.53v3.6h3.53v-3.6Z"/><path fill="#FCE76B" d="M46.48 107.34h-3.53v3.53h3.53v-3.53ZM46.48 103.74h-3.53v3.6h3.53v-3.6Z"/><path fill="#DDCA6C" d="M46.48 100.21h-3.53v3.53h3.53v-3.53Z"/><path fill="#000" d="M46.48 96.68h-3.53v3.53h3.53v-3.53Z"/><path fill="#DDCA6C" d="M42.96 125.12h-3.53v3.53h3.53v-3.53Z"/><path fill="#FCE76B" d="M42.96 121.52h-3.53v3.6h3.53v-3.6Z"/><path fill="#E80F42" d="M42.96 117.99h-3.53v3.53h3.53v-3.53ZM42.96 114.46h-3.53v3.53h3.53v-3.53ZM42.96 110.86h-3.53v3.6h3.53v-3.6Z"/><path fill="#FCE76B" d="M42.96 107.34h-3.53v3.53h3.53v-3.53ZM42.96 103.74h-3.53v3.6h3.53v-3.6Z"/><path fill="#DDCA6C" d="M42.96 100.21h-3.53v3.53h3.53v-3.53Z"/><path fill="#000" d="M42.96 96.68h-3.53v3.53h3.53v-3.53Z"/><path fill="#DDCA6C" d="M39.43 125.12h-3.6v3.53h3.6v-3.53Z"/><path fill="#FCE76B" d="M39.43 121.52h-3.6v3.6h3.6v-3.6Z"/><path fill="#E80F42" d="M39.43 117.99h-3.6v3.53h3.6v-3.53Z"/><path fill="#FCE76B" d="M39.43 114.46h-3.6v3.53h3.6v-3.53Z"/><path fill="#E80F42" d="M39.43 110.86h-3.6v3.6h3.6v-3.6Z"/><path fill="#FCE76B" d="M39.43 107.34h-3.6v3.53h3.6v-3.53ZM39.43 103.74h-3.6v3.6h3.6v-3.6Z"/><path fill="#DDCA6C" d="M39.43 100.21h-3.6v3.53h3.6v-3.53Z"/><path fill="#000" d="M39.43 96.68h-3.6v3.53h3.6v-3.53Z"/><path fill="#DDCA6C" d="M35.83 125.12H32.3v3.53h3.53v-3.53Z"/><path fill="#E80F42" d="M35.83 121.52H32.3v3.6h3.53v-3.6Z"/><path fill="#FCE76B" d="M35.83 117.99H32.3v3.53h3.53v-3.53ZM35.83 114.46H32.3v3.53h3.53v-3.53ZM35.83 110.86H32.3v3.6h3.53v-3.6Z"/><path fill="#E80F42" d="M35.83 107.34H32.3v3.53h3.53v-3.53Z"/><path fill="#FCE76B" d="M35.83 103.74H32.3v3.6h3.53v-3.6Z"/><path fill="#DDCA6C" d="M35.83 100.21H32.3v3.53h3.53v-3.53Z"/><path fill="#000" d="M35.83 96.68H32.3v3.53h3.53v-3.53Z"/><path fill="#DDCA6C" d="M32.3 125.12h-3.53v3.53h3.53v-3.53Z"/><path fill="#E80F42" d="M32.3 121.52h-3.53v3.6h3.53v-3.6Z"/><path fill="#FCE76B" d="M32.3 117.99h-3.53v3.53h3.53v-3.53ZM32.3 114.46h-3.53v3.53h3.53v-3.53ZM32.3 110.86h-3.53v3.6h3.53v-3.6Z"/><path fill="#E80F42" d="M32.3 107.34h-3.53v3.53h3.53v-3.53Z"/><path fill="#FCE76B" d="M32.3 103.74h-3.53v3.6h3.53v-3.6Z"/><path fill="#DDCA6C" d="M32.3 100.21h-3.53v3.53h3.53v-3.53Z"/><path fill="#000" d="M32.3 96.68h-3.53v3.53h3.53v-3.53Z"/><path fill="#DDCA6C" d="M28.77 125.12h-3.6v3.53h3.6v-3.53Z"/><path fill="#FCE76B" d="M28.77 121.52h-3.6v3.6h3.6v-3.6ZM28.77 117.99h-3.6v3.53h3.6v-3.53ZM28.77 114.46h-3.6v3.53h3.6v-3.53ZM28.77 110.86h-3.6v3.6h3.6v-3.6Z"/><path fill="#FCE76B" d="M28.77 107.34h-3.6v3.53h3.6v-3.53Z"/><path fill="#DDCA6C" d="M28.77 103.74h-3.6v3.6h3.6v-3.6ZM28.77 100.21h-3.6v3.53h3.6v-3.53Z"/><path fill="#000" d="M28.77 96.68h-3.6v3.53h3.6v-3.53Z"/><path fill="#DDCA6C" d="M25.18 125.12h-3.53v3.53h3.53v-3.53Z"/><path fill="#FCE76B" d="M25.18 121.52h-3.53v3.6h3.53v-3.6ZM25.18 117.99h-3.53v3.53h3.53v-3.53ZM25.18 114.46h-3.53v3.53h3.53v-3.53ZM25.18 110.86h-3.53v3.6h3.53v-3.6Z"/><path fill="#DDCA6C" d="M25.18 107.34h-3.53v3.53h3.53v-3.53Z"/><path fill="#000" d="M25.18 103.74h-3.53v3.6h3.53v-3.6ZM25.18 100.21h-3.53v3.53h3.53v-3.53Z"/><path fill="#DDCA6C" d="M21.65 125.12h-3.6v3.53h3.6v-3.53Z"/><path fill="#FCE76B" d="M21.65 121.52h-3.6v3.6h3.6v-3.6ZM21.65 117.99h-3.6v3.53h3.6v-3.53Z"/><path fill="#DDCA6C" d="M21.65 114.46h-3.6v3.53h3.6v-3.53ZM21.65 110.86h-3.6v3.6h3.6v-3.6Z"/><path fill="#000" d="M21.65 107.34h-3.6v3.53h3.6v-3.53ZM21.65 103.74h-3.6v3.6h3.6v-3.6Z"/><path fill="#DDCA6C" d="M18.05 125.12h-3.53v3.53h3.53v-3.53Z"/><path fill="#FCE76B" d="M18.05 121.52h-3.53v3.6h3.53v-3.6Z"/><path fill="#DDCA6C" d="M18.05 117.99h-3.53v3.53h3.53v-3.53Z"/><path fill="#000" d="M18.05 114.46h-3.53v3.53h3.53v-3.53ZM18.05 110.86h-3.53v3.6h3.53v-3.6Z"/><path fill="#DDCA6C" d="M18.05 107.34h-3.53v3.53h3.53v-3.53ZM18.05 103.74h-3.53v3.6h3.53v-3.6Z"/><path fill="#000" d="M18.05 100.21h-3.53v3.53h3.53v-3.53Z"/><path fill="#DDCA6C" d="M14.52 125.12h-3.53v3.53h3.53v-3.53ZM14.52 121.52h-3.53v3.6h3.53v-3.6Z"/><path fill="#000" d="M14.52 117.99h-3.53v3.53h3.53v-3.53Z"/><path fill="#DDCA6C" d="M14.52 114.46h-3.53v3.53h3.53v-3.53ZM14.52 110.86h-3.53v3.6h3.53v-3.6Z"/><path fill="#DDCA6C" d="M14.52 107.34h-3.53v3.53h3.53v-3.53ZM14.52 103.74h-3.53v3.6h3.53v-3.6Z"/><path fill="#000" d="M14.52 100.21h-3.53v3.53h3.53v-3.53Z"/><path fill="#DDCA6C" d="M10.99 125.12h-3.6v3.53h3.6v-3.53Z"/><path fill="#000" d="M10.99 121.52h-3.6v3.6h3.6v-3.6Z"/><path fill="#DDCA6C" d="M10.99 117.99h-3.6v3.53h3.6v-3.53ZM10.99 114.46h-3.6v3.53h3.6v-3.53ZM10.99 110.86h-3.6v3.6h3.6v-3.6Z"/><path fill="#DDCA6C" d="M10.99 107.34h-3.6v3.53h3.6v-3.53ZM10.99 103.74h-3.6v3.6h3.6v-3.6ZM10.99 100.21h-3.6v3.53h3.6v-3.53Z"/><path fill="#000" d="M10.99 96.68h-3.6v3.53h3.6v-3.53ZM7.39 125.12H3.86v3.53h3.53v-3.53Z"/><path fill="#DDCA6C" d="M7.39 121.52H3.86v3.6h3.53v-3.6ZM7.39 117.99H3.86v3.53h3.53v-3.53ZM7.39 114.46H3.86v3.53h3.53v-3.53ZM7.39 110.86H3.86v3.6h3.53v-3.6Z"/><path fill="#DDCA6C" d="M7.39 107.34H3.86v3.53h3.53v-3.53ZM7.39 103.74H3.86v3.6h3.53v-3.6ZM7.39 100.21H3.86v3.53h3.53v-3.53Z"/><path fill="#000" d="M7.39 96.68H3.86v3.53h3.53v-3.53ZM3.86 128.65H.26v3.53h3.6v-3.53ZM3.86 125.12H.26v3.53h3.6v-3.53ZM3.86 121.52H.26v3.6h3.6v-3.6ZM3.86 117.99H.26v3.53h3.6v-3.53ZM3.86 114.46H.26v3.53h3.6v-3.53ZM3.86 110.86H.26v3.6h3.6v-3.6Z"/><path fill="#000" d="M3.86 107.34H.26v3.53h3.6v-3.53ZM3.86 103.74H.26v3.6h3.6v-3.6ZM3.86 100.21H.26v3.53h3.6v-3.53Z"/><path fill="#000" d="M3.86 96.68H.26v3.53h3.6v-3.53Z"/></svg>