<svg xmlns="http://www.w3.org/2000/svg" width="224" height="239" fill="none">
  <path fill="#544B56" d="M134.17 141.65h-7.49v7.41h7.49v-7.41Z" />
  <path
    fill="#000"
    d="M193.76 231.12h-7.41v7.41h7.41v-7.41ZM89.39 231.12h-7.41v7.41h7.41v-7.41ZM186.35 231.12h-7.49v7.41h7.49v-7.41Z"
  />
  <path
    fill="#000"
    d="M178.86 231.12h-7.48v7.41h7.48v-7.41ZM156.47 231.12h-7.41v7.41h7.41v-7.41ZM163.96 231.12h-7.49v7.41h7.49v-7.41ZM171.37 231.12h-7.41v7.41h7.41v-7.41ZM111.78 231.12h-7.49v7.41h7.49v-7.41ZM104.29 231.12h-7.41v7.41h7.41v-7.41ZM96.88 231.12h-7.49v7.41h7.49v-7.41ZM126.68 231.12h-7.41v7.41h7.41v-7.41ZM119.27 231.12h-7.49v7.41h7.49v-7.41Z"
  />
  <path fill="#9087B5" d="M141.57 74.57h-7.41v7.41h7.41v-7.41Z" />
  <path fill="#9087B5" d="M134.17 74.57h-7.49v7.41h7.49v-7.41Z" />
  <path
    fill="#9087B5"
    d="M126.68 74.57h-7.41v7.41h7.41v-7.41ZM149.06 74.57h-7.49v7.41h7.49v-7.41Z"
  />
  <path fill="#544B56" d="M178.86 223.63h-7.48v7.49h7.48v-7.49Z" />
  <path fill="#000" d="M134.17 14.9h-7.49v7.49h7.49V14.9Z" />
  <path fill="#000" d="M126.68 14.9h-7.41v7.49h7.41V14.9Z" />
  <path fill="#F49364" d="M156.47 52.18h-7.41v7.49h7.41v-7.49Z" />
  <path fill="#F49364" d="M156.47 44.7h-7.41v7.49h7.41V44.7Z" />
  <path
    fill="#FFEFD3"
    d="M134.17 59.67h-7.49v7.41h7.49v-7.41ZM134.17 44.7h-7.49v7.49h7.49V44.7Z"
  />
  <path
    fill="#FFEFD3"
    d="M141.57 59.67h-7.41v7.41h7.41v-7.41ZM141.57 52.18h-7.41v7.49h7.41v-7.49Z"
  />
  <path fill="#FFEFD3" d="M134.17 52.18h-7.49v7.49h7.49v-7.49Z" />
  <path
    fill="#FFEFD3"
    d="M141.57 44.7h-7.41v7.49h7.41V44.7ZM126.68 52.18h-7.41v7.49h7.41v-7.49Z"
  />
  <path
    fill="#FFEFD3"
    d="M126.68 44.7h-7.41v7.49h7.41V44.7ZM126.68 59.67h-7.41v7.41h7.41v-7.41ZM149.06 52.18h-7.49v7.49h7.49v-7.49Z"
  />
  <path
    fill="#FFEFD3"
    d="M149.06 44.7h-7.49v7.49h7.49V44.7ZM149.06 59.67h-7.49v7.41h7.49v-7.41Z"
  />
  <path
    fill="#F49364"
    d="M59.6 149.06h-7.49v7.49h7.49v-7.49ZM52.11 119.27H44.7v7.49h7.41v-7.49ZM59.6 111.86h-7.49v7.41h7.49v-7.41ZM52.11 111.86H44.7v7.41h7.41v-7.41Z"
  />
  <path fill="#7A3124" d="M134.17 67.08h-7.49v7.49h7.49v-7.49Z" />
  <path
    fill="#7A3124"
    d="M141.57 67.08h-7.41v7.49h7.41v-7.49ZM149.06 67.08h-7.49v7.49h7.49v-7.49ZM156.47 59.67h-7.41v7.41h7.41v-7.41ZM59.6 141.65h-7.49v7.41h7.49v-7.41ZM59.6 126.75h-7.49v7.41h7.49v-7.41Z"
  />
  <path
    fill="#7A3124"
    d="M59.6 119.27h-7.49v7.49h7.49v-7.49ZM52.11 126.75H44.7v7.41h7.41v-7.41ZM89.39 126.75h-7.41v7.41h7.41v-7.41Z"
  />
  <path
    fill="#7A3124"
    d="M89.39 119.27h-7.41v7.49h7.41v-7.49ZM89.39 111.86h-7.41v7.41h7.41v-7.41ZM96.88 111.86h-7.49v7.41h7.49v-7.41ZM96.88 119.27h-7.49v7.49h7.49v-7.49Z"
  />
  <path fill="#7A3124" d="M96.88 126.75h-7.49v7.41h7.49v-7.41Z" />
  <path
    fill="#9087B5"
    d="M81.98 119.27h-7.49v7.49h7.49v-7.49ZM81.98 111.86h-7.49v7.41h7.49v-7.41Z"
  />
  <path fill="#9087B5" d="M81.98 126.75h-7.49v7.41h7.49v-7.41Z" />
  <path fill="#544B56" d="M52.11 96.88H44.7v7.49h7.41v-7.49Z" />
  <path
    fill="#E7DACE"
    d="M104.29 193.83h-7.41v7.41h7.41v-7.41ZM171.37 193.83h-7.41v7.41h7.41v-7.41ZM163.96 193.83h-7.49v7.41h7.49v-7.41ZM178.86 89.47h-7.48v7.41h7.48v-7.41ZM163.96 96.88h-7.49v7.49h7.49v-7.49ZM163.96 89.47h-7.49v7.41h7.49v-7.41ZM163.96 111.86h-7.49v7.41h7.49v-7.41ZM163.96 104.37h-7.49v7.49h7.49v-7.49ZM171.37 89.47h-7.41v7.41h7.41v-7.41ZM163.96 74.57h-7.49v7.41h7.49v-7.41ZM171.37 74.57h-7.41v7.41h7.41v-7.41ZM141.57 7.49h-7.41v7.41h7.41V7.49Z"
  />
  <path
    fill="#E7DACE"
    d="M134.17 7.49h-7.49v7.41h7.49V7.49ZM149.06 7.49h-7.49v7.41h7.49V7.49ZM134.17 89.47h-7.49v7.41h7.49v-7.41ZM141.57 96.88h-7.41v7.49h7.41v-7.49ZM141.57 81.98h-7.41v7.49h7.41v-7.49ZM134.17 104.37h-7.49v7.49h7.49v-7.49Z"
  />
  <path
    fill="#E7DACE"
    d="M134.17 96.88h-7.49v7.49h7.49v-7.49ZM141.57 89.47h-7.41v7.41h7.41v-7.41Z"
  />
  <path
    fill="#544B56"
    d="M81.98 134.16h-7.49v7.49h7.49v-7.49ZM74.49 126.75h-7.41v7.41h7.41v-7.41Z"
  />
  <path
    fill="#544B56"
    d="M74.49 119.27h-7.41v7.49h7.41v-7.49ZM67.08 119.27h-7.49v7.49h7.49v-7.49Z"
  />
  <path
    fill="#544B56"
    d="M67.08 126.75h-7.49v7.41h7.49v-7.41ZM186.35 223.63h-7.49v7.49h7.49v-7.49ZM178.86 216.15h-7.48v7.48h7.48v-7.48ZM156.47 201.25h-7.41v7.48h7.41v-7.48ZM171.37 223.63h-7.41v7.49h7.41v-7.49ZM171.37 216.15h-7.41v7.48h7.41v-7.48ZM171.37 208.73h-7.41v7.42h7.41v-7.42ZM171.37 201.25h-7.41v7.48h7.41v-7.48ZM163.96 223.63h-7.49v7.49h7.49v-7.49ZM163.96 208.73h-7.49v7.42h7.49v-7.42ZM163.96 216.15h-7.49v7.48h7.49v-7.48ZM163.96 201.25h-7.49v7.48h7.49v-7.48ZM156.47 186.35h-7.41v7.49h7.41v-7.49ZM163.96 186.35h-7.49v7.49h7.49v-7.49ZM149.06 178.94h-7.49v7.41h7.49v-7.41ZM149.06 171.45h-7.49v7.49h7.49v-7.49ZM156.47 171.45h-7.41v7.49h7.41v-7.49ZM156.47 178.94h-7.41v7.41h7.41v-7.41ZM156.47 163.97h-7.41v7.48h7.41v-7.48ZM163.96 171.45h-7.49v7.49h7.49v-7.49ZM163.96 178.94h-7.49v7.41h7.49v-7.41ZM171.37 178.94h-7.41v7.41h7.41v-7.41ZM111.78 208.73h-7.49v7.42h7.49v-7.42ZM111.78 216.15h-7.49v7.48h7.49v-7.48ZM111.78 223.63h-7.49v7.49h7.49v-7.49ZM111.78 201.25h-7.49v7.48h7.49v-7.48ZM104.29 201.25h-7.41v7.48h7.41v-7.48ZM104.29 223.63h-7.41v7.49h7.41v-7.49ZM96.88 223.63h-7.49v7.49h7.49v-7.49ZM119.27 193.83h-7.49v7.41h7.49v-7.41ZM119.27 208.73h-7.49v7.42h7.49v-7.42ZM119.27 223.63h-7.49v7.49h7.49v-7.49ZM119.27 216.15h-7.49v7.48h7.49v-7.48ZM119.27 201.25h-7.49v7.48h7.49v-7.48Z"
  />
  <path
    fill="#000"
    d="M223.56 141.65h-7.42v7.41h7.42v-7.41ZM223.56 134.16h-7.42v7.49h7.42v-7.49ZM223.56 126.75h-7.42v7.41h7.42v-7.41Z"
  />
  <path
    fill="#000"
    d="M223.56 119.27h-7.42v7.49h7.42v-7.49ZM223.56 111.86h-7.42v7.41h7.42v-7.41ZM223.56 104.37h-7.42v7.49h7.42v-7.49ZM223.56 96.88h-7.42v7.49h7.42v-7.49ZM223.56 89.47h-7.42v7.41h7.42v-7.41ZM223.56 81.98h-7.42v7.49h7.42v-7.49ZM216.14 149.06h-7.48v7.49h7.48v-7.49Z"
  />
  <path
    fill="#544B56"
    d="M216.14 141.65h-7.48v7.41h7.48v-7.41ZM216.14 134.16h-7.48v7.49h7.48v-7.49ZM216.14 126.75h-7.48v7.41h7.48v-7.41Z"
  />
  <path
    fill="#544B56"
    d="M216.14 119.27h-7.48v7.49h7.48v-7.49ZM216.14 111.86h-7.48v7.41h7.48v-7.41ZM216.14 104.37h-7.48v7.49h7.48v-7.49ZM216.14 96.88h-7.48v7.49h7.48v-7.49ZM216.14 89.47h-7.48v7.41h7.48v-7.41ZM216.14 81.98h-7.48v7.49h7.48v-7.49Z"
  />
  <path
    fill="#000"
    d="M216.14 74.57h-7.48v7.41h7.48v-7.41ZM208.66 156.55h-7.41v7.41h7.41v-7.41Z"
  />
  <path fill="#544B56" d="M208.66 149.06h-7.41v7.49h7.41v-7.49Z" />
  <path
    fill="#89031A"
    d="M208.66 141.65h-7.41v7.41h7.41v-7.41ZM208.66 134.16h-7.41v7.49h7.41v-7.49ZM208.66 126.75h-7.41v7.41h7.41v-7.41Z"
  />
  <path
    fill="#89031A"
    d="M208.66 119.27h-7.41v7.49h7.41v-7.49ZM208.66 111.86h-7.41v7.41h7.41v-7.41ZM208.66 104.37h-7.41v7.49h7.41v-7.49ZM208.66 96.88h-7.41v7.49h7.41v-7.49ZM208.66 89.47h-7.41v7.41h7.41v-7.41Z"
  />
  <path fill="#544B56" d="M208.66 81.98h-7.41v7.49h7.41v-7.49Z" />
  <path
    fill="#000"
    d="M208.66 74.57h-7.41v7.41h7.41v-7.41ZM201.25 163.97h-7.49v7.48h7.49v-7.48Z"
  />
  <path fill="#544B56" d="M201.25 156.55h-7.49v7.41h7.49v-7.41Z" />
  <path
    fill="#89031A"
    d="M201.25 149.06h-7.49v7.49h7.49v-7.49ZM201.25 141.65h-7.49v7.41h7.49v-7.41ZM201.25 134.16h-7.49v7.49h7.49v-7.49ZM201.25 126.75h-7.49v7.41h7.49v-7.41Z"
  />
  <path
    fill="#89031A"
    d="M201.25 119.27h-7.49v7.49h7.49v-7.49ZM201.25 111.86h-7.49v7.41h7.49v-7.41ZM201.25 104.37h-7.49v7.49h7.49v-7.49ZM201.25 96.88h-7.49v7.49h7.49v-7.49Z"
  />
  <path fill="#544B56" d="M201.25 89.47h-7.49v7.41h7.49v-7.41Z" />
  <path
    fill="#000"
    d="M201.25 81.98h-7.49v7.49h7.49v-7.49ZM193.76 223.63h-7.41v7.49h7.41v-7.49ZM193.76 171.45h-7.41v7.49h7.41v-7.49Z"
  />
  <path fill="#544B56" d="M193.76 163.97h-7.41v7.48h7.41v-7.48Z" />
  <path
    fill="#89031A"
    d="M193.76 156.55h-7.41v7.41h7.41v-7.41ZM193.76 149.06h-7.41v7.49h7.41v-7.49ZM193.76 141.65h-7.41v7.41h7.41v-7.41ZM193.76 134.16h-7.41v7.49h7.41v-7.49ZM193.76 126.75h-7.41v7.41h7.41v-7.41Z"
  />
  <path
    fill="#89031A"
    d="M193.76 119.27h-7.41v7.49h7.41v-7.49ZM193.76 111.86h-7.41v7.41h7.41v-7.41ZM193.76 104.37h-7.41v7.49h7.41v-7.49ZM193.76 96.88h-7.41v7.49h7.41v-7.49Z"
  />
  <path fill="#544B56" d="M193.76 89.47h-7.41v7.41h7.41v-7.41Z" />
  <path
    fill="#000"
    d="M193.76 81.98h-7.41v7.49h7.41v-7.49ZM186.35 216.15h-7.49v7.48h7.49v-7.48ZM186.35 193.83h-7.49v7.41h7.49v-7.41ZM186.35 171.45h-7.49v7.49h7.49v-7.49Z"
  />
  <path fill="#9087B5" d="M186.35 163.97h-7.49v7.48h7.49v-7.48Z" />
  <path fill="#544B56" d="M186.35 156.55h-7.49v7.41h7.49v-7.41Z" />
  <path
    fill="#A30417"
    d="M186.35 149.06h-7.49v7.49h7.49v-7.49ZM186.35 141.65h-7.49v7.41h7.49v-7.41ZM186.35 134.16h-7.49v7.49h7.49v-7.49ZM186.35 126.75h-7.49v7.41h7.49v-7.41Z"
  />
  <path
    fill="#EF0012"
    d="M186.35 119.27h-7.49v7.49h7.49v-7.49ZM186.35 111.86h-7.49v7.41h7.49v-7.41ZM186.35 104.37h-7.49v7.49h7.49v-7.49ZM186.35 96.88h-7.49v7.49h7.49v-7.49Z"
  />
  <path fill="#9087B5" d="M186.35 89.47h-7.49v7.41h7.49v-7.41Z" />
  <path
    fill="#000"
    d="M186.35 81.98h-7.49v7.49h7.49v-7.49ZM186.35 74.57h-7.49v7.41h7.49v-7.41ZM178.86 208.73h-7.48v7.42h7.48v-7.42ZM178.86 201.25h-7.48v7.48h7.48v-7.48Z"
  />
  <path fill="#9087B5" d="M178.86 193.83h-7.48v7.41h7.48v-7.41Z" />
  <path
    fill="#000"
    d="M178.86 186.35h-7.48v7.49h7.48v-7.49ZM178.86 178.94h-7.48v7.41h7.48v-7.41ZM178.86 171.45h-7.48v7.49h7.48v-7.49ZM178.86 163.97h-7.48v7.48h7.48v-7.48Z"
  />
  <path fill="#9087B5" d="M178.86 156.55h-7.48v7.41h7.48v-7.41Z" />
  <path fill="#544B56" d="M178.86 149.06h-7.48v7.49h7.48v-7.49Z" />
  <path
    fill="#A30417"
    d="M178.86 141.65h-7.48v7.41h7.48v-7.41ZM178.86 134.16h-7.48v7.49h7.48v-7.49ZM178.86 126.75h-7.48v7.41h7.48v-7.41Z"
  />
  <path fill="#A30417" d="M178.86 119.27h-7.48v7.49h7.48v-7.49Z" />
  <path
    fill="#EF0012"
    d="M178.86 111.86h-7.48v7.41h7.48v-7.41ZM178.86 104.37h-7.48v7.49h7.48v-7.49ZM178.86 96.88h-7.48v7.49h7.48v-7.49Z"
  />
  <path fill="#000" d="M178.86 81.98h-7.48v7.49h7.48v-7.49Z" />
  <path fill="#9087B5" d="M178.86 74.57h-7.48v7.41h7.48v-7.41Z" />
  <path
    fill="#000"
    d="M178.86 67.08h-7.48v7.49h7.48v-7.49ZM178.86 44.7h-7.48v7.49h7.48V44.7ZM178.86 37.29h-7.48v7.41h7.48v-7.41ZM178.86 29.8h-7.48v7.49h7.48V29.8ZM171.37 186.35h-7.41v7.49h7.41v-7.49ZM171.37 171.45h-7.41v7.49h7.41v-7.49ZM171.37 163.97h-7.41v7.48h7.41v-7.48ZM171.37 156.55h-7.41v7.41h7.41v-7.41Z"
  />
  <path fill="#9087B5" d="M171.37 149.06h-7.41v7.49h7.41v-7.49Z" />
  <path
    fill="#A30417"
    d="M171.37 141.65h-7.41v7.41h7.41v-7.41ZM171.37 134.16h-7.41v7.49h7.41v-7.49ZM171.37 126.75h-7.41v7.41h7.41v-7.41Z"
  />
  <path
    fill="#A30417"
    d="M171.37 119.27h-7.41v7.49h7.41v-7.49ZM171.37 111.86h-7.41v7.41h7.41v-7.41Z"
  />
  <path
    fill="#EF0012"
    d="M171.37 104.37h-7.41v7.49h7.41v-7.49ZM171.37 96.88h-7.41v7.49h7.41v-7.49Z"
  />
  <path
    fill="#000"
    d="M171.37 81.98h-7.41v7.49h7.41v-7.49ZM171.37 67.08h-7.41v7.49h7.41v-7.49ZM171.37 52.18h-7.41v7.49h7.41v-7.49Z"
  />
  <path fill="#544B56" d="M171.37 44.7h-7.41v7.49h7.41V44.7Z" />
  <path fill="#000" d="M171.37 37.29h-7.41v7.41h7.41v-7.41Z" />
  <path fill="#544B56" d="M171.37 29.8h-7.41v7.49h7.41V29.8Z" />
  <path
    fill="#000"
    d="M171.37 22.39h-7.41v7.41h7.41v-7.41ZM171.37 14.9h-7.41v7.49h7.41V14.9ZM163.96 163.97h-7.49v7.48h7.49v-7.48ZM163.96 156.55h-7.49v7.41h7.49v-7.41ZM163.96 149.06h-7.49v7.49h7.49v-7.49Z"
  />
  <path
    fill="#9087B5"
    d="M163.96 141.65h-7.49v7.41h7.49v-7.41ZM163.96 134.16h-7.49v7.49h7.49v-7.49ZM163.96 126.75h-7.49v7.41h7.49v-7.41Z"
  />
  <path fill="#9087B5" d="M163.96 119.27h-7.49v7.49h7.49v-7.49Z" />
  <path
    fill="#000"
    d="M163.96 81.98h-7.49v7.49h7.49v-7.49ZM163.96 67.08h-7.49v7.49h7.49v-7.49ZM163.96 59.67h-7.49v7.41h7.49v-7.41Z"
  />
  <path fill="#544B56" d="M163.96 52.18h-7.49v7.49h7.49v-7.49Z" />
  <path fill="#544B56" d="M163.96 44.7h-7.49v7.49h7.49V44.7Z" />
  <path fill="#000" d="M163.96 37.29h-7.49v7.41h7.49v-7.41Z" />
  <path fill="#9087B5" d="M163.96 29.8h-7.49v7.49h7.49V29.8Z" />
  <path fill="#544B56" d="M163.96 22.39h-7.49v7.41h7.49v-7.41Z" />
  <path fill="#9087B5" d="M163.96 14.9h-7.49v7.49h7.49V14.9Z" />
  <path
    fill="#000"
    d="M163.96 7.49h-7.49v7.41h7.49V7.49ZM156.47 223.63h-7.41v7.49h7.41v-7.49ZM156.47 216.15h-7.41v7.48h7.41v-7.48ZM156.47 208.73h-7.41v7.42h7.41v-7.42Z"
  />
  <path fill="#9087B5" d="M156.47 193.83h-7.41v7.41h7.41v-7.41Z" />
  <path
    fill="#000"
    d="M156.47 156.55h-7.41v7.41h7.41v-7.41ZM156.47 149.06h-7.41v7.49h7.41v-7.49ZM156.47 141.65h-7.41v7.41h7.41v-7.41ZM156.47 134.16h-7.41v7.49h7.41v-7.49ZM156.47 126.75h-7.41v7.41h7.41v-7.41Z"
  />
  <path
    fill="#000"
    d="M156.47 119.27h-7.41v7.49h7.41v-7.49ZM156.47 111.86h-7.41v7.41h7.41v-7.41ZM156.47 104.37h-7.41v7.49h7.41v-7.49ZM156.47 96.88h-7.41v7.49h7.41v-7.49ZM156.47 89.47h-7.41v7.41h7.41v-7.41ZM156.47 81.98h-7.41v7.49h7.41v-7.49Z"
  />
  <path fill="#9087B5" d="M156.47 74.57h-7.41v7.41h7.41v-7.41Z" />
  <path
    fill="#000"
    d="M156.47 67.08h-7.41v7.49h7.41v-7.49ZM156.47 37.29h-7.41v7.41h7.41v-7.41Z"
  />
  <path
    fill="#9087B5"
    d="M156.47 29.8h-7.41v7.49h7.41V29.8ZM156.47 22.39h-7.41v7.41h7.41v-7.41Z"
  />
  <path fill="#544B56" d="M156.47 14.9h-7.41v7.49h7.41V14.9Z" />
  <path fill="#9087B5" d="M156.47 7.49h-7.41v7.41h7.41V7.49Z" />
  <path
    fill="#000"
    d="M156.47 0h-7.41v7.49h7.41V0ZM149.06 201.25h-7.49v7.48h7.49v-7.48ZM149.06 193.83h-7.49v7.41h7.49v-7.41Z"
  />
  <path
    fill="#000"
    d="M149.06 186.35h-7.49v7.49h7.49v-7.49ZM149.06 163.97h-7.49v7.48h7.49v-7.48ZM149.06 156.55h-7.49v7.41h7.49v-7.41ZM149.06 149.06h-7.49v7.49h7.49v-7.49ZM149.06 141.65h-7.49v7.41h7.49v-7.41ZM149.06 134.16h-7.49v7.49h7.49v-7.49ZM149.06 126.75h-7.49v7.41h7.49v-7.41Z"
  />
  <path fill="#544B56" d="M149.06 119.27h-7.49v7.49h7.49v-7.49Z" />
  <path
    fill="#9087B5"
    d="M149.06 111.86h-7.49v7.41h7.49v-7.41ZM149.06 104.37h-7.49v7.49h7.49v-7.49ZM149.06 96.88h-7.49v7.49h7.49v-7.49ZM149.06 89.47h-7.49v7.41h7.49v-7.41ZM149.06 81.98h-7.49v7.49h7.49v-7.49Z"
  />
  <path fill="#000" d="M149.06 37.29h-7.49v7.41h7.49v-7.41Z" />
  <path
    fill="#9087B5"
    d="M149.06 29.8h-7.49v7.49h7.49V29.8ZM149.06 22.39h-7.49v7.41h7.49v-7.41Z"
  />
  <path fill="#544B56" d="M149.06 14.9h-7.49v7.49h7.49V14.9Z" />
  <path
    fill="#000"
    d="M149.06 0h-7.49v7.49h7.49V0ZM141.57 178.94h-7.41v7.41h7.41v-7.41ZM141.57 171.45h-7.41v7.49h7.41v-7.49Z"
  />
  <path fill="#544B56" d="M141.57 163.97h-7.41v7.48h7.41v-7.48Z" />
  <path
    fill="#9087B5"
    d="M141.57 156.55h-7.41v7.41h7.41v-7.41ZM141.57 149.06h-7.41v7.49h7.41v-7.49ZM141.57 141.65h-7.41v7.41h7.41v-7.41Z"
  />
  <path fill="#000" d="M141.57 134.16h-7.41v7.49h7.41v-7.49Z" />
  <path fill="#544B56" d="M141.57 126.75h-7.41v7.41h7.41v-7.41Z" />
  <path
    fill="#9087B5"
    d="M141.57 119.27h-7.41v7.49h7.41v-7.49ZM141.57 111.86h-7.41v7.41h7.41v-7.41ZM141.57 104.37h-7.41v7.49h7.41v-7.49Z"
  />
  <path fill="#000" d="M141.57 37.29h-7.41v7.41h7.41v-7.41Z" />
  <path
    fill="#9087B5"
    d="M141.57 29.8h-7.41v7.49h7.41V29.8ZM141.57 22.39h-7.41v7.41h7.41v-7.41Z"
  />
  <path fill="#544B56" d="M141.57 14.9h-7.41v7.49h7.41V14.9Z" />
  <path
    fill="#000"
    d="M141.57 0h-7.41v7.49h7.41V0ZM134.17 178.94h-7.49v7.41h7.49v-7.41ZM134.17 171.45h-7.49v7.49h7.49v-7.49Z"
  />
  <path
    fill="#9087B5"
    d="M134.17 163.97h-7.49v7.48h7.49v-7.48ZM134.17 156.55h-7.49v7.41h7.49v-7.41ZM134.17 149.06h-7.49v7.49h7.49v-7.49Z"
  />
  <path fill="#544B56" d="M134.17 134.16h-7.49v7.49h7.49v-7.49Z" />
  <path fill="#9087B5" d="M134.17 126.75h-7.49v7.41h7.49v-7.41Z" />
  <path
    fill="#9087B5"
    d="M134.17 119.27h-7.49v7.49h7.49v-7.49ZM134.17 111.86h-7.49v7.41h7.49v-7.41ZM134.17 81.98h-7.49v7.49h7.49v-7.49Z"
  />
  <path fill="#000" d="M134.17 37.29h-7.49v7.41h7.49v-7.41Z" />
  <path
    fill="#9087B5"
    d="M134.17 29.8h-7.49v7.49h7.49V29.8ZM134.17 22.39h-7.49v7.41h7.49v-7.41Z"
  />
  <path
    fill="#000"
    d="M134.17 0h-7.49v7.49h7.49V0ZM126.68 223.63h-7.41v7.49h7.41v-7.49ZM126.68 216.15h-7.41v7.48h7.41v-7.48ZM126.68 208.73h-7.41v7.42h7.41v-7.42ZM126.68 201.25h-7.41v7.48h7.41v-7.48ZM126.68 193.83h-7.41v7.41h7.41v-7.41Z"
  />
  <path fill="#000" d="M126.68 186.35h-7.41v7.49h7.41v-7.49Z" />
  <path fill="#544B56" d="M126.68 178.94h-7.41v7.41h7.41v-7.41Z" />
  <path fill="#000" d="M126.68 171.45h-7.41v7.49h7.41v-7.49Z" />
  <path
    fill="#544B56"
    d="M126.68 163.97h-7.41v7.48h7.41v-7.48ZM126.68 156.55h-7.41v7.41h7.41v-7.41ZM126.68 149.06h-7.41v7.49h7.41v-7.49ZM126.68 141.65h-7.41v7.41h7.41v-7.41ZM126.68 134.16h-7.41v7.49h7.41v-7.49ZM126.68 126.75h-7.41v7.41h7.41v-7.41Z"
  />
  <path
    fill="#544B56"
    d="M126.68 119.27h-7.41v7.49h7.41v-7.49ZM126.68 111.86h-7.41v7.41h7.41v-7.41ZM126.68 104.37h-7.41v7.49h7.41v-7.49Z"
  />
  <path
    fill="#9087B5"
    d="M126.68 96.88h-7.41v7.49h7.41v-7.49ZM126.68 89.47h-7.41v7.41h7.41v-7.41ZM126.68 81.98h-7.41v7.49h7.41v-7.49Z"
  />
  <path
    fill="#000"
    d="M126.68 67.08h-7.41v7.49h7.41v-7.49ZM126.68 37.29h-7.41v7.41h7.41v-7.41Z"
  />
  <path
    fill="#544B56"
    d="M126.68 29.8h-7.41v7.49h7.41V29.8ZM126.68 22.39h-7.41v7.41h7.41v-7.41Z"
  />
  <path fill="#9087B5" d="M126.68 7.49h-7.41v7.41h7.41V7.49Z" />
  <path
    fill="#000"
    d="M126.68 0h-7.41v7.49h7.41V0ZM119.27 186.35h-7.49v7.49h7.49v-7.49Z"
  />
  <path
    fill="#544B56"
    d="M119.27 178.94h-7.49v7.41h7.49v-7.41ZM119.27 171.45h-7.49v7.49h7.49v-7.49Z"
  />
  <path
    fill="#000"
    d="M119.27 163.97h-7.49v7.48h7.49v-7.48ZM119.27 156.55h-7.49v7.41h7.49v-7.41ZM119.27 149.06h-7.49v7.49h7.49v-7.49ZM119.27 141.65h-7.49v7.41h7.49v-7.41ZM119.27 134.16h-7.49v7.49h7.49v-7.49ZM119.27 126.75h-7.49v7.41h7.49v-7.41Z"
  />
  <path
    fill="#544B56"
    d="M119.27 119.27h-7.49v7.49h7.49v-7.49ZM119.27 111.86h-7.49v7.41h7.49v-7.41ZM119.27 104.37h-7.49v7.49h7.49v-7.49Z"
  />
  <path
    fill="#9087B5"
    d="M119.27 96.88h-7.49v7.49h7.49v-7.49ZM119.27 89.47h-7.49v7.41h7.49v-7.41Z"
  />
  <path
    fill="#544B56"
    d="M119.27 81.98h-7.49v7.49h7.49v-7.49ZM119.27 74.57h-7.49v7.41h7.49v-7.41Z"
  />
  <path
    fill="#000"
    d="M119.27 67.08h-7.49v7.49h7.49v-7.49ZM119.27 59.67h-7.49v7.41h7.49v-7.41Z"
  />
  <path fill="#544B56" d="M119.27 52.18h-7.49v7.49h7.49v-7.49Z" />
  <path fill="#544B56" d="M119.27 44.7h-7.49v7.49h7.49V44.7Z" />
  <path fill="#000" d="M119.27 37.29h-7.49v7.41h7.49v-7.41Z" />
  <path
    fill="#544B56"
    d="M119.27 29.8h-7.49v7.49h7.49V29.8ZM119.27 22.39h-7.49v7.41h7.49v-7.41Z"
  />
  <path
    fill="#000"
    d="M119.27 14.9h-7.49v7.49h7.49V14.9ZM119.27 7.49h-7.49v7.41h7.49V7.49Z"
  />
  <path fill="#9087B5" d="M111.78 193.83h-7.49v7.41h7.49v-7.41Z" />
  <path
    fill="#544B56"
    d="M111.78 186.35h-7.49v7.49h7.49v-7.49ZM111.78 178.94h-7.49v7.41h7.49v-7.41ZM111.78 171.45h-7.49v7.49h7.49v-7.49ZM111.78 163.97h-7.49v7.48h7.49v-7.48Z"
  />
  <path fill="#000" d="M111.78 156.55h-7.49v7.41h7.49v-7.41Z" />
  <path
    fill="#9087B5"
    d="M111.78 149.06h-7.49v7.49h7.49v-7.49ZM111.78 141.65h-7.49v7.41h7.49v-7.41Z"
  />
  <path
    fill="#000"
    d="M111.78 134.16h-7.49v7.49h7.49v-7.49ZM111.78 126.75h-7.49v7.41h7.49v-7.41Z"
  />
  <path fill="#000" d="M111.78 119.27h-7.49v7.49h7.49v-7.49Z" />
  <path
    fill="#544B56"
    d="M111.78 111.86h-7.49v7.41h7.49v-7.41ZM111.78 104.37h-7.49v7.49h7.49v-7.49Z"
  />
  <path
    fill="#000"
    d="M111.78 96.88h-7.49v7.49h7.49v-7.49ZM111.78 89.47h-7.49v7.41h7.49v-7.41Z"
  />
  <path fill="#544B56" d="M111.78 81.98h-7.49v7.49h7.49v-7.49Z" />
  <path fill="#9087B5" d="M111.78 74.57h-7.49v7.41h7.49v-7.41Z" />
  <path
    fill="#000"
    d="M111.78 67.08h-7.49v7.49h7.49v-7.49ZM111.78 52.18h-7.49v7.49h7.49v-7.49Z"
  />
  <path
    fill="#000"
    d="M111.78 44.7h-7.49v7.49h7.49V44.7ZM111.78 37.29h-7.49v7.41h7.49v-7.41Z"
  />
  <path
    fill="#9087B5"
    d="M111.78 29.8h-7.49v7.49h7.49V29.8ZM111.78 22.39h-7.49v7.41h7.49v-7.41Z"
  />
  <path
    fill="#000"
    d="M111.78 14.9h-7.49v7.49h7.49V14.9ZM104.29 216.15h-7.41v7.48h7.41v-7.48ZM104.29 208.73h-7.41v7.42h7.41v-7.42Z"
  />
  <path
    fill="#544B56"
    d="M104.29 186.35h-7.41v7.49h7.41v-7.49ZM104.29 178.94h-7.41v7.41h7.41v-7.41ZM104.29 171.45h-7.41v7.49h7.41v-7.49Z"
  />
  <path fill="#000" d="M104.29 163.97h-7.41v7.48h7.41v-7.48Z" />
  <path
    fill="#9087B5"
    d="M104.29 156.55h-7.41v7.41h7.41v-7.41ZM104.29 149.06h-7.41v7.49h7.41v-7.49Z"
  />
  <path fill="#544B56" d="M104.29 141.65h-7.41v7.41h7.41v-7.41Z" />
  <path
    fill="#000"
    d="M104.29 134.16h-7.41v7.49h7.41v-7.49ZM104.29 126.75h-7.41v7.41h7.41v-7.41Z"
  />
  <path
    fill="#000"
    d="M104.29 119.27h-7.41v7.49h7.41v-7.49ZM104.29 111.86h-7.41v7.41h7.41v-7.41ZM104.29 104.37h-7.41v7.49h7.41v-7.49Z"
  />
  <path
    fill="#544B56"
    d="M104.29 96.88h-7.41v7.49h7.41v-7.49ZM104.29 89.47h-7.41v7.41h7.41v-7.41Z"
  />
  <path
    fill="#9087B5"
    d="M104.29 81.98h-7.41v7.49h7.41v-7.49ZM104.29 74.57h-7.41v7.41h7.41v-7.41Z"
  />
  <path
    fill="#000"
    d="M104.29 67.08h-7.41v7.49h7.41v-7.49ZM104.29 37.29h-7.41v7.41h7.41v-7.41ZM104.29 29.8h-7.41v7.49h7.41V29.8ZM104.29 22.39h-7.41v7.41h7.41v-7.41ZM96.88 216.15h-7.49v7.48h7.49v-7.48ZM96.88 201.25h-7.49v7.48h7.49v-7.48Z"
  />
  <path fill="#9087B5" d="M96.88 193.83h-7.49v7.41h7.49v-7.41Z" />
  <path
    fill="#000"
    d="M96.88 186.35h-7.49v7.49h7.49v-7.49ZM96.88 178.94h-7.49v7.41h7.49v-7.41ZM96.88 171.45h-7.49v7.49h7.49v-7.49ZM96.88 163.97h-7.49v7.48h7.49v-7.48ZM96.88 156.55h-7.49v7.41h7.49v-7.41ZM96.88 149.06h-7.49v7.49h7.49v-7.49ZM96.88 141.65h-7.49v7.41h7.49v-7.41ZM96.88 134.16h-7.49v7.49h7.49v-7.49ZM96.88 104.37h-7.49v7.49h7.49v-7.49Z"
  />
  <path fill="#544B56" d="M96.88 96.88h-7.49v7.49h7.49v-7.49Z" />
  <path
    fill="#9087B5"
    d="M96.88 89.47h-7.49v7.41h7.49v-7.41ZM96.88 81.98h-7.49v7.49h7.49v-7.49Z"
  />
  <path
    fill="#000"
    d="M96.88 74.57h-7.49v7.41h7.49v-7.41ZM89.39 223.63h-7.41v7.49h7.41v-7.49ZM89.39 193.83h-7.41v7.41h7.41v-7.41ZM89.39 134.16h-7.41v7.49h7.41v-7.49ZM89.39 104.37h-7.41v7.49h7.41v-7.49ZM89.39 96.88h-7.41v7.49h7.41v-7.49ZM89.39 89.47h-7.41v7.41h7.41v-7.41ZM89.39 81.98h-7.41v7.49h7.41v-7.49ZM81.98 141.65h-7.49v7.41h7.49v-7.41ZM81.98 104.37h-7.49v7.49h7.49v-7.49ZM74.49 134.16h-7.41v7.49h7.41v-7.49ZM74.49 111.86h-7.41v7.41h7.41v-7.41ZM67.08 156.55h-7.49v7.41h7.49v-7.41ZM67.08 149.06h-7.49v7.49h7.49v-7.49ZM67.08 141.65h-7.49v7.41h7.49v-7.41ZM67.08 134.16h-7.49v7.49h7.49v-7.49ZM67.08 111.86h-7.49v7.41h7.49v-7.41ZM67.08 104.37h-7.49v7.49h7.49v-7.49ZM67.08 96.88h-7.49v7.49h7.49v-7.49Z"
  />
  <path
    fill="#000"
    d="M59.6 156.55h-7.49v7.41h7.49v-7.41ZM59.6 134.16h-7.49v7.49h7.49v-7.49Z"
  />
  <path fill="#9087B5" d="M59.6 104.37h-7.49v7.49h7.49v-7.49Z" />
  <path fill="#E7DACE" d="M59.6 96.88h-7.49v7.49h7.49v-7.49Z" />
  <path
    fill="#000"
    d="M59.6 89.47h-7.49v7.41h7.49v-7.41ZM52.11 156.55H44.7v7.41h7.41v-7.41ZM52.11 149.06H44.7v7.49h7.41v-7.49ZM52.11 141.65H44.7v7.41h7.41v-7.41ZM52.11 134.16H44.7v7.49h7.41v-7.49Z"
  />
  <path fill="#9087B5" d="M52.11 104.37H44.7v7.49h7.41v-7.49Z" />
  <path
    fill="#000"
    d="M52.11 89.47H44.7v7.41h7.41v-7.41ZM52.11 81.98H44.7v7.49h7.41v-7.49ZM52.11 74.57H44.7v7.41h7.41v-7.41ZM44.7 134.16h-7.49v7.49h7.49v-7.49ZM44.7 126.75h-7.49v7.41h7.49v-7.41Z"
  />
  <path fill="#000" d="M44.7 119.27h-7.49v7.49h7.49v-7.49Z" />
  <path fill="#9087B5" d="M44.7 111.86h-7.49v7.41h7.49v-7.41Z" />
  <path fill="#544B56" d="M44.7 104.37h-7.49v7.49h7.49v-7.49Z" />
  <path
    fill="#E7DACE"
    d="M44.7 96.88h-7.49v7.49h7.49v-7.49ZM44.7 89.47h-7.49v7.41h7.49v-7.41ZM44.7 81.98h-7.49v7.49h7.49v-7.49ZM44.7 74.57h-7.49v7.41h7.49v-7.41Z"
  />
  <path
    fill="#000"
    d="M44.7 67.08h-7.49v7.49h7.49v-7.49ZM44.7 59.67h-7.49v7.41h7.49v-7.41ZM44.7 52.18h-7.49v7.49h7.49v-7.49ZM37.21 119.27H29.8v7.49h7.41v-7.49Z"
  />
  <path fill="#9087B5" d="M37.21 111.86H29.8v7.41h7.41v-7.41Z" />
  <path fill="#544B56" d="M37.21 104.37H29.8v7.49h7.41v-7.49Z" />
  <path
    fill="#E7DACE"
    d="M37.21 96.88H29.8v7.49h7.41v-7.49ZM37.21 89.47H29.8v7.41h7.41v-7.41ZM37.21 81.98H29.8v7.49h7.41v-7.49ZM37.21 74.57H29.8v7.41h7.41v-7.41ZM37.21 67.08H29.8v7.49h7.41v-7.49ZM37.21 59.67H29.8v7.41h7.41v-7.41ZM37.21 52.18H29.8v7.49h7.41v-7.49Z"
  />
  <path
    fill="#000"
    d="M37.21 44.7H29.8v7.49h7.41V44.7ZM37.21 37.29H29.8v7.41h7.41v-7.41ZM37.21 29.8H29.8v7.49h7.41V29.8ZM29.8 119.27h-7.49v7.49h7.49v-7.49Z"
  />
  <path fill="#E7DACE" d="M29.8 111.86h-7.49v7.41h7.49v-7.41Z" />
  <path
    fill="#000"
    d="M29.8 104.37h-7.49v7.49h7.49v-7.49ZM29.8 96.88h-7.49v7.49h7.49v-7.49ZM29.8 89.47h-7.49v7.41h7.49v-7.41ZM29.8 81.98h-7.49v7.49h7.49v-7.49Z"
  />
  <path
    fill="#E7DACE"
    d="M29.8 74.57h-7.49v7.41h7.49v-7.41ZM29.8 67.08h-7.49v7.49h7.49v-7.49ZM29.8 59.67h-7.49v7.41h7.49v-7.41ZM29.8 52.18h-7.49v7.49h7.49v-7.49Z"
  />
  <path
    fill="#E7DACE"
    d="M29.8 44.7h-7.49v7.49h7.49V44.7ZM29.8 37.29h-7.49v7.41h7.49v-7.41ZM29.8 29.8h-7.49v7.49h7.49V29.8Z"
  />
  <path
    fill="#000"
    d="M29.8 22.39h-7.49v7.41h7.49v-7.41ZM29.8 14.9h-7.49v7.49h7.49V14.9ZM22.31 111.86H14.9v7.41h7.41v-7.41ZM22.31 74.57H14.9v7.41h7.41v-7.41ZM22.31 67.08H14.9v7.49h7.41v-7.49ZM22.31 59.67H14.9v7.41h7.41v-7.41Z"
  />
  <path fill="#E7DACE" d="M22.31 52.18H14.9v7.49h7.41v-7.49Z" />
  <path
    fill="#E7DACE"
    d="M22.31 44.7H14.9v7.49h7.41V44.7ZM22.31 37.29H14.9v7.41h7.41v-7.41ZM22.31 29.8H14.9v7.49h7.41V29.8ZM22.31 22.39H14.9v7.41h7.41v-7.41ZM22.31 14.9H14.9v7.49h7.41V14.9Z"
  />
  <path
    fill="#000"
    d="M22.31 7.49H14.9v7.41h7.41V7.49ZM14.9 52.18H7.41v7.49h7.49v-7.49Z"
  />
  <path
    fill="#000"
    d="M14.9 44.7H7.41v7.49h7.49V44.7ZM14.9 37.29H7.41v7.41h7.49v-7.41Z"
  />
  <path
    fill="#E7DACE"
    d="M14.9 29.8H7.41v7.49h7.49V29.8ZM14.9 22.39H7.41v7.41h7.49v-7.41ZM14.9 14.9H7.41v7.49h7.49V14.9Z"
  />
  <path
    fill="#000"
    d="M14.9 7.49H7.41v7.41h7.49V7.49ZM7.41 29.8H0v7.49h7.41V29.8ZM7.41 22.39H0v7.41h7.41v-7.41ZM7.41 14.9H0v7.49h7.41V14.9Z"
  />
</svg>
