<svg xmlns="http://www.w3.org/2000/svg" width="183" height="253" fill="none"><path fill="#000" d="M182.36 63.68h-6.94v7.01h6.94v-7.01ZM182.36 56.74h-6.94v6.94h6.94v-6.94ZM175.42 63.68h-7.01v7.01h7.01v-7.01Z"/><path fill="#0404BF" d="M175.42 56.74h-7.01v6.94h7.01v-6.94Z"/><path fill="#000" d="M175.42 49.73h-7.01v7.01h7.01v-7.01ZM168.4 63.68h-7v7.01h7v-7.01Z"/><path fill="#0404BF" d="M168.4 56.74h-7v6.94h7v-6.94Z"/><path fill="#000" d="M168.4 49.73h-7v7.01h7v-7.01ZM161.4 245.18h-6.94v6.95h6.94v-6.95ZM161.4 238.18h-6.94v7h6.94v-7ZM161.4 231.24h-6.94v6.94h6.94v-6.94ZM161.4 224.22h-6.94v7.01h6.94v-7.01ZM161.4 217.28h-6.94v6.94h6.94v-6.94ZM161.4 168.42h-6.94v6.94h6.94v-6.94ZM161.4 161.41h-6.94v7.01h6.94v-7.01ZM161.4 154.4h-6.94v7h6.94v-7ZM161.4 147.46h-6.94v6.94h6.94v-6.94ZM161.4 140.45h-6.94v7.01h6.94v-7.01ZM161.4 133.51h-6.94v6.94h6.94v-6.94ZM161.4 126.49h-6.94v7.01h6.94v-7.01ZM161.4 119.55h-6.94v6.94h6.94v-6.94Z"/><path fill="#000" d="M161.4 112.54h-6.94v7.01h6.94v-7.01ZM161.4 105.6h-6.94v6.94h6.94v-6.94Z"/><path fill="#000" d="M161.4 98.59h-6.94v7.01h6.94v-7.01ZM161.4 63.68h-6.94v7.01h6.94v-7.01Z"/><path fill="#0404BF" d="M161.4 56.74h-6.94v6.94h6.94v-6.94ZM161.4 49.73h-6.94v7.01h6.94v-7.01Z"/><path fill="#000" d="M161.4 42.72h-6.94v7.01h6.94v-7.01Z"/><path fill="#030384" d="M154.46 245.18h-7.01v6.95h7.01v-6.95ZM154.46 238.18h-7.01v7h7.01v-7ZM154.46 231.24h-7.01v6.94h7.01v-6.94ZM154.46 224.22h-7.01v7.01h7.01v-7.01ZM154.46 217.28h-7.01v6.94h7.01v-6.94Z"/><path fill="#000" d="M154.46 210.27h-7.01v7.01h7.01v-7.01ZM154.46 203.27h-7.01v7h7.01v-7ZM154.46 196.31h-7.01v6.95h7.01v-6.95Z"/><path fill="#000" d="M154.46 189.32h-7.01v7h7.01v-7ZM154.46 182.37h-7.01v6.94h7.01v-6.94ZM154.46 175.36h-7.01v7.01h7.01v-7.01Z"/><path fill="#E5A070" d="M154.46 168.42h-7.01v6.94h7.01v-6.94Z"/><path fill="#0404BF" d="M154.46 161.41h-7.01v7.01h7.01v-7.01ZM154.46 154.4h-7.01v7h7.01v-7ZM154.46 147.46h-7.01v6.94h7.01v-6.94ZM154.46 140.45h-7.01v7.01h7.01v-7.01ZM154.46 133.51h-7.01v6.94h7.01v-6.94ZM154.46 126.49h-7.01v7.01h7.01v-7.01ZM154.46 119.55h-7.01v6.94h7.01v-6.94Z"/><path fill="#0404BF" d="M154.46 112.54h-7.01v7.01h7.01v-7.01ZM154.46 105.6h-7.01v6.94h7.01v-6.94Z"/><path fill="#0404BF" d="M154.46 98.59h-7.01v7.01h7.01v-7.01Z"/><path fill="#000" d="M154.46 91.58h-7.01v7.01h7.01v-7.01ZM154.46 77.63h-7.01v7.01h7.01v-7.01ZM154.46 70.69h-7.01v6.94h7.01v-6.94ZM154.46 63.68h-7.01v7.01h7.01v-7.01Z"/><path fill="#0404BF" d="M154.46 56.74h-7.01v6.94h7.01v-6.94ZM154.46 49.73h-7.01v7.01h7.01v-7.01Z"/><path fill="#030384" d="M154.46 42.72h-7.01v7.01h7.01v-7.01Z"/><path fill="#000" d="M154.46 35.78h-7.01v6.94h7.01v-6.94ZM154.46 28.76h-7.01v7.01h7.01v-7.01ZM154.46 21.82h-7.01v6.94h7.01v-6.94ZM154.46 14.81h-7.01v7.01h7.01v-7.01Z"/><path fill="#030384" d="M147.45 245.18h-6.94v6.95h6.94v-6.95ZM147.45 238.18h-6.94v7h6.94v-7ZM147.45 231.24h-6.94v6.94h6.94v-6.94ZM147.45 224.22h-6.94v7.01h6.94v-7.01ZM147.45 217.28h-6.94v6.94h6.94v-6.94ZM147.45 210.27h-6.94v7.01h6.94v-7.01ZM147.45 203.27h-6.94v7h6.94v-7ZM147.45 196.31h-6.94v6.95h6.94v-6.95Z"/><path fill="#030384" d="M147.45 189.32h-6.94v7h6.94v-7ZM147.45 182.37h-6.94v6.94h6.94v-6.94Z"/><path fill="#0707A5" d="M147.45 175.36h-6.94v7.01h6.94v-7.01Z"/><path fill="#EDB58C" d="M147.45 168.42h-6.94v6.94h6.94v-6.94Z"/><path fill="#0404BF" d="M147.45 161.41h-6.94v7.01h6.94v-7.01ZM147.45 154.4h-6.94v7h6.94v-7ZM147.45 147.46h-6.94v6.94h6.94v-6.94ZM147.45 140.45h-6.94v7.01h6.94v-7.01ZM147.45 133.51h-6.94v6.94h6.94v-6.94ZM147.45 126.49h-6.94v7.01h6.94v-7.01ZM147.45 119.55h-6.94v6.94h6.94v-6.94Z"/><path fill="#0404BF" d="M147.45 112.54h-6.94v7.01h6.94v-7.01ZM147.45 105.6h-6.94v6.94h6.94v-6.94Z"/><path fill="#0404BF" d="M147.45 98.59h-6.94v7.01h6.94v-7.01Z"/><path fill="#000" d="M147.45 91.58h-6.94v7.01h6.94v-7.01ZM147.45 84.64h-6.94v6.94h6.94v-6.94Z"/><path fill="#D8D7D6" d="M147.45 77.63h-6.94v7.01h6.94v-7.01Z"/><path fill="#9E9B98" d="M147.45 70.69h-6.94v6.94h6.94v-6.94Z"/><path fill="#000" d="M147.45 63.68h-6.94v7.01h6.94v-7.01Z"/><path fill="#030384" d="M147.45 56.74h-6.94v6.94h6.94v-6.94Z"/><path fill="#0404BF" d="M147.45 49.73h-6.94v7.01h6.94v-7.01Z"/><path fill="#030384" d="M147.45 42.72h-6.94v7.01h6.94v-7.01Z"/><path fill="#000" d="M147.45 35.78h-6.94v6.94h6.94v-6.94Z"/><path fill="#030384" d="M147.45 28.76h-6.94v7.01h6.94v-7.01ZM147.45 21.82h-6.94v6.94h6.94v-6.94ZM147.45 14.81h-6.94v7.01h6.94v-7.01Z"/><path fill="#000" d="M147.45 7.87h-6.94v6.94h6.94V7.87Z"/><path fill="#0404BF" d="M140.5 245.18h-7.01v6.95h7.01v-6.95ZM140.5 238.18h-7.01v7h7.01v-7ZM140.5 231.24h-7.01v6.94h7.01v-6.94ZM140.5 224.22h-7.01v7.01h7.01v-7.01ZM140.5 217.28h-7.01v6.94h7.01v-6.94ZM140.5 210.27h-7.01v7.01h7.01v-7.01ZM140.5 203.27h-7.01v7h7.01v-7ZM140.5 196.31h-7.01v6.95h7.01v-6.95Z"/><path fill="#0404BF" d="M140.5 189.32h-7.01v7h7.01v-7Z"/><path fill="#030384" d="M140.5 182.37h-7.01v6.94h7.01v-6.94Z"/><path fill="#0707A5" d="M140.5 175.36h-7.01v7.01h7.01v-7.01Z"/><path fill="#EDB58C" d="M140.5 168.42h-7.01v6.94h7.01v-6.94Z"/><path fill="#0404BF" d="M140.5 161.41h-7.01v7.01h7.01v-7.01ZM140.5 154.4h-7.01v7h7.01v-7ZM140.5 147.46h-7.01v6.94h7.01v-6.94ZM140.5 140.45h-7.01v7.01h7.01v-7.01ZM140.5 133.51h-7.01v6.94h7.01v-6.94ZM140.5 126.49h-7.01v7.01h7.01v-7.01ZM140.5 119.55h-7.01v6.94h7.01v-6.94Z"/><path fill="#0404BF" d="M140.5 112.54h-7.01v7.01h7.01v-7.01ZM140.5 105.6h-7.01v6.94h7.01v-6.94Z"/><path fill="#030384" d="M140.5 98.59h-7.01v7.01h7.01v-7.01Z"/><path fill="#000" d="M140.5 91.58h-7.01v7.01h7.01v-7.01Z"/><path fill="#D8D7D6" d="M140.5 84.64h-7.01v6.94h7.01v-6.94ZM140.5 77.63h-7.01v7.01h7.01v-7.01ZM140.5 70.69h-7.01v6.94h7.01v-6.94Z"/><path fill="#000" d="M140.5 63.68h-7.01v7.01h7.01v-7.01Z"/><path fill="#030384" d="M140.5 56.74h-7.01v6.94h7.01v-6.94Z"/><path fill="#0404BF" d="M140.5 49.73h-7.01v7.01h7.01v-7.01ZM140.5 42.72h-7.01v7.01h7.01v-7.01Z"/><path fill="#030384" d="M140.5 35.78h-7.01v6.94h7.01v-6.94ZM140.5 28.76h-7.01v7.01h7.01v-7.01ZM140.5 21.82h-7.01v6.94h7.01v-6.94ZM140.5 14.81h-7.01v7.01h7.01v-7.01ZM140.5 7.87h-7.01v6.94h7.01V7.87Z"/><path fill="#000" d="M140.5.86h-7.01v7.01h7.01V.86Z"/><path fill="#0404BF" d="M133.49 245.18h-6.94v6.95h6.94v-6.95ZM133.49 238.18h-6.94v7h6.94v-7ZM133.49 231.24h-6.94v6.94h6.94v-6.94ZM133.49 224.22h-6.94v7.01h6.94v-7.01ZM133.49 217.28h-6.94v6.94h6.94v-6.94ZM133.49 210.27h-6.94v7.01h6.94v-7.01ZM133.49 203.27h-6.94v7h6.94v-7ZM133.49 196.31h-6.94v6.95h6.94v-6.95Z"/><path fill="#0404BF" d="M133.49 189.32h-6.94v7h6.94v-7ZM133.49 182.37h-6.94v6.94h6.94v-6.94Z"/><path fill="#030384" d="M133.49 175.36h-6.94v7.01h6.94v-7.01Z"/><path fill="#0707A5" d="M133.49 168.42h-6.94v6.94h6.94v-6.94Z"/><path fill="#000" d="M133.49 161.41h-6.94v7.01h6.94v-7.01ZM133.49 154.4h-6.94v7h6.94v-7ZM133.49 147.46h-6.94v6.94h6.94v-6.94ZM133.49 140.45h-6.94v7.01h6.94v-7.01ZM133.49 133.51h-6.94v6.94h6.94v-6.94ZM133.49 126.49h-6.94v7.01h6.94v-7.01Z"/><path fill="#0404BF" d="M133.49 119.55h-6.94v6.94h6.94v-6.94Z"/><path fill="#030384" d="M133.49 112.54h-6.94v7.01h6.94v-7.01ZM133.49 105.6h-6.94v6.94h6.94v-6.94Z"/><path fill="#000" d="M133.49 98.59h-6.94v7.01h6.94v-7.01Z"/><path fill="#9E9B98" d="M133.49 91.58h-6.94v7.01h6.94v-7.01ZM133.49 84.64h-6.94v6.94h6.94v-6.94Z"/><path fill="#D8D7D6" d="M133.49 77.63h-6.94v7.01h6.94v-7.01Z"/><path fill="#9E9B98" d="M133.49 70.69h-6.94v6.94h6.94v-6.94ZM133.49 63.68h-6.94v7.01h6.94v-7.01Z"/><path fill="#000" d="M133.49 56.74h-6.94v6.94h6.94v-6.94Z"/><path fill="#0404BF" d="M133.49 49.73h-6.94v7.01h6.94v-7.01ZM133.49 42.72h-6.94v7.01h6.94v-7.01Z"/><path fill="#030384" d="M133.49 35.78h-6.94v6.94h6.94v-6.94ZM133.49 28.76h-6.94v7.01h6.94v-7.01ZM133.49 21.82h-6.94v6.94h6.94v-6.94ZM133.49 14.81h-6.94v7.01h6.94v-7.01ZM133.49 7.87h-6.94v6.94h6.94V7.87Z"/><path fill="#000" d="M133.49.86h-6.94v7.01h6.94V.86Z"/><path fill="#0404BF" d="M126.55 245.18h-7.01v6.95h7.01v-6.95ZM126.55 238.18h-7.01v7h7.01v-7ZM126.55 231.24h-7.01v6.94h7.01v-6.94ZM126.55 224.22h-7.01v7.01h7.01v-7.01ZM126.55 217.28h-7.01v6.94h7.01v-6.94ZM126.55 210.27h-7.01v7.01h7.01v-7.01ZM126.55 203.27h-7.01v7h7.01v-7ZM126.55 196.31h-7.01v6.95h7.01v-6.95Z"/><path fill="#0404BF" d="M126.55 189.32h-7.01v7h7.01v-7ZM126.55 182.37h-7.01v6.94h7.01v-6.94ZM126.55 175.36h-7.01v7.01h7.01v-7.01Z"/><path fill="#030384" d="M126.55 168.42h-7.01v6.94h7.01v-6.94Z"/><path fill="#D6B409" d="M126.55 161.41h-7.01v7.01h7.01v-7.01Z"/><path fill="#0404BF" d="M126.55 154.4h-7.01v7h7.01v-7ZM126.55 147.46h-7.01v6.94h7.01v-6.94ZM126.55 140.45h-7.01v7.01h7.01v-7.01ZM126.55 133.51h-7.01v6.94h7.01v-6.94ZM126.55 126.49h-7.01v7.01h7.01v-7.01ZM126.55 119.55h-7.01v6.94h7.01v-6.94Z"/><path fill="#030384" d="M126.55 112.54h-7.01v7.01h7.01v-7.01Z"/><path fill="#000" d="M126.55 105.6h-7.01v6.94h7.01v-6.94Z"/><path fill="#D8D7D6" d="M126.55 98.59h-7.01v7.01h7.01v-7.01ZM126.55 91.58h-7.01v7.01h7.01v-7.01ZM126.55 84.64h-7.01v6.94h7.01v-6.94Z"/><path fill="#9E9B98" d="M126.55 77.63h-7.01v7.01h7.01v-7.01Z"/><path fill="#EFB589" d="M126.55 70.69h-7.01v6.94h7.01v-6.94ZM126.55 63.68h-7.01v7.01h7.01v-7.01Z"/><path fill="#000" d="M126.55 56.74h-7.01v6.94h7.01v-6.94Z"/><path fill="#0404BF" d="M126.55 49.73h-7.01v7.01h7.01v-7.01ZM126.55 42.72h-7.01v7.01h7.01v-7.01ZM126.55 35.78h-7.01v6.94h7.01v-6.94Z"/><path fill="#030384" d="M126.55 28.76h-7.01v7.01h7.01v-7.01ZM126.55 21.82h-7.01v6.94h7.01v-6.94ZM126.55 14.81h-7.01v7.01h7.01v-7.01ZM126.55 7.87h-7.01v6.94h7.01V7.87Z"/><path fill="#000" d="M126.55.86h-7.01v7.01h7.01V.86Z"/><path fill="#0404BF" d="M119.54 245.18h-6.94v6.95h6.94v-6.95ZM119.54 238.18h-6.94v7h6.94v-7ZM119.54 231.24h-6.94v6.94h6.94v-6.94ZM119.54 224.22h-6.94v7.01h6.94v-7.01ZM119.54 217.28h-6.94v6.94h6.94v-6.94ZM119.54 210.27h-6.94v7.01h6.94v-7.01ZM119.54 203.27h-6.94v7h6.94v-7ZM119.54 196.31h-6.94v6.95h6.94v-6.95Z"/><path fill="#0404BF" d="M119.54 189.32h-6.94v7h6.94v-7ZM119.54 182.37h-6.94v6.94h6.94v-6.94ZM119.54 175.36h-6.94v7.01h6.94v-7.01ZM119.54 168.42h-6.94v6.94h6.94v-6.94Z"/><path fill="#F9C126" d="M119.54 161.41h-6.94v7.01h6.94v-7.01Z"/><path fill="#0404BF" d="M119.54 154.4h-6.94v7h6.94v-7ZM119.54 147.46h-6.94v6.94h6.94v-6.94ZM119.54 140.45h-6.94v7.01h6.94v-7.01ZM119.54 133.51h-6.94v6.94h6.94v-6.94ZM119.54 126.49h-6.94v7.01h6.94v-7.01Z"/><path fill="#000" d="M119.54 119.55h-6.94v6.94h6.94v-6.94Z"/><path fill="#000" d="M119.54 112.54h-6.94v7.01h6.94v-7.01Z"/><path fill="#9E9B98" d="M119.54 105.6h-6.94v6.94h6.94v-6.94Z"/><path fill="#D8D7D6" d="M119.54 98.59h-6.94v7.01h6.94v-7.01ZM119.54 91.58h-6.94v7.01h6.94v-7.01Z"/><path fill="#9E9B98" d="M119.54 84.64h-6.94v6.94h6.94v-6.94Z"/><path fill="#EFB589" d="M119.54 77.63h-6.94v7.01h6.94v-7.01ZM119.54 70.69h-6.94v6.94h6.94v-6.94ZM119.54 63.68h-6.94v7.01h6.94v-7.01Z"/><path fill="#000" d="M119.54 56.74h-6.94v6.94h6.94v-6.94Z"/><path fill="#0404BF" d="M119.54 49.73h-6.94v7.01h6.94v-7.01ZM119.54 42.72h-6.94v7.01h6.94v-7.01ZM119.54 35.78h-6.94v6.94h6.94v-6.94Z"/><path fill="#030384" d="M119.54 28.76h-6.94v7.01h6.94v-7.01ZM119.54 21.82h-6.94v6.94h6.94v-6.94ZM119.54 14.81h-6.94v7.01h6.94v-7.01Z"/><path fill="#000" d="M119.54 7.87h-6.94v6.94h6.94V7.87Z"/><path fill="#0404BF" d="M112.6 245.18h-7.01v6.95h7.01v-6.95ZM112.6 238.18h-7.01v7h7.01v-7ZM112.6 231.24h-7.01v6.94h7.01v-6.94ZM112.6 224.22h-7.01v7.01h7.01v-7.01ZM112.6 217.28h-7.01v6.94h7.01v-6.94ZM112.6 210.27h-7.01v7.01h7.01v-7.01ZM112.6 203.27h-7.01v7h7.01v-7ZM112.6 196.31h-7.01v6.95h7.01v-6.95Z"/><path fill="#0404BF" d="M112.6 189.32h-7.01v7h7.01v-7ZM112.6 182.37h-7.01v6.94h7.01v-6.94ZM112.6 175.36h-7.01v7.01h7.01v-7.01ZM112.6 168.42h-7.01v6.94h7.01v-6.94Z"/><path fill="#F9C126" d="M112.6 161.41h-7.01v7.01h7.01v-7.01Z"/><path fill="#0404BF" d="M112.6 154.4h-7.01v7h7.01v-7ZM112.6 147.46h-7.01v6.94h7.01v-6.94ZM112.6 140.45h-7.01v7.01h7.01v-7.01ZM112.6 133.51h-7.01v6.94h7.01v-6.94Z"/><path fill="#000" d="M112.6 126.49h-7.01v7.01h7.01v-7.01Z"/><path fill="#9E9B98" d="M112.6 119.55h-7.01v6.94h7.01v-6.94Z"/><path fill="#D8D7D6" d="M112.6 112.54h-7.01v7.01h7.01v-7.01ZM112.6 105.6h-7.01v6.94h7.01v-6.94Z"/><path fill="#D8D7D6" d="M112.6 98.59h-7.01v7.01h7.01v-7.01ZM112.6 91.58h-7.01v7.01h7.01v-7.01ZM112.6 84.64h-7.01v6.94h7.01v-6.94Z"/><path fill="#9E9B98" d="M112.6 77.63h-7.01v7.01h7.01v-7.01Z"/><path fill="#D8D7D6" d="M112.6 70.69h-7.01v6.94h7.01v-6.94Z"/><path fill="#EFB589" d="M112.6 63.68h-7.01v7.01h7.01v-7.01Z"/><path fill="#000" d="M112.6 56.74h-7.01v6.94h7.01v-6.94Z"/><path fill="#0404BF" d="M112.6 49.73h-7.01v7.01h7.01v-7.01ZM112.6 42.72h-7.01v7.01h7.01v-7.01ZM112.6 35.78h-7.01v6.94h7.01v-6.94Z"/><path fill="#030384" d="M112.6 28.76h-7.01v7.01h7.01v-7.01ZM112.6 21.82h-7.01v6.94h7.01v-6.94Z"/><path fill="#000" d="M112.6 14.81h-7.01v7.01h7.01v-7.01Z"/><path fill="#0404BF" d="M105.59 245.18h-7.01v6.95h7.01v-6.95ZM105.59 238.18h-7.01v7h7.01v-7ZM105.59 231.24h-7.01v6.94h7.01v-6.94ZM105.59 224.22h-7.01v7.01h7.01v-7.01ZM105.59 217.28h-7.01v6.94h7.01v-6.94ZM105.59 210.27h-7.01v7.01h7.01v-7.01ZM105.59 203.27h-7.01v7h7.01v-7ZM105.59 196.31h-7.01v6.95h7.01v-6.95Z"/><path fill="#0404BF" d="M105.59 189.32h-7.01v7h7.01v-7ZM105.59 182.37h-7.01v6.94h7.01v-6.94ZM105.59 175.36h-7.01v7.01h7.01v-7.01ZM105.59 168.42h-7.01v6.94h7.01v-6.94Z"/><path fill="#F9C126" d="M105.59 161.41h-7.01v7.01h7.01v-7.01Z"/><path fill="#0404BF" d="M105.59 154.4h-7.01v7h7.01v-7ZM105.59 147.46h-7.01v6.94h7.01v-6.94ZM105.59 140.45h-7.01v7.01h7.01v-7.01ZM105.59 133.51h-7.01v6.94h7.01v-6.94ZM105.59 126.49h-7.01v7.01h7.01v-7.01Z"/><path fill="#000" d="M105.59 119.55h-7.01v6.94h7.01v-6.94Z"/><path fill="#D8D7D6" d="M105.59 112.54h-7.01v7.01h7.01v-7.01ZM105.59 105.6h-7.01v6.94h7.01v-6.94Z"/><path fill="#D8D7D6" d="M105.59 98.59h-7.01v7.01h7.01v-7.01ZM105.59 91.58h-7.01v7.01h7.01v-7.01ZM105.59 84.64h-7.01v6.94h7.01v-6.94Z"/><path fill="#9E9B98" d="M105.59 77.63h-7.01v7.01h7.01v-7.01Z"/><path fill="#D8D7D6" d="M105.59 70.69h-7.01v6.94h7.01v-6.94Z"/><path fill="#EFB589" d="M105.59 63.68h-7.01v7.01h7.01v-7.01Z"/><path fill="#000" d="M105.59 56.74h-7.01v6.94h7.01v-6.94Z"/><path fill="#0404BF" d="M105.59 49.73h-7.01v7.01h7.01v-7.01ZM105.59 42.72h-7.01v7.01h7.01v-7.01ZM105.59 35.78h-7.01v6.94h7.01v-6.94ZM105.59 28.76h-7.01v7.01h7.01v-7.01Z"/><path fill="#000" d="M105.59 21.82h-7.01v6.94h7.01v-6.94Z"/><path fill="#0404BF" d="M98.58 245.18h-6.94v6.95h6.94v-6.95ZM98.58 238.18h-6.94v7h6.94v-7ZM98.58 231.24h-6.94v6.94h6.94v-6.94ZM98.58 224.22h-6.94v7.01h6.94v-7.01ZM98.58 217.28h-6.94v6.94h6.94v-6.94ZM98.58 210.27h-6.94v7.01h6.94v-7.01ZM98.58 203.27h-6.94v7h6.94v-7ZM98.58 196.31h-6.94v6.95h6.94v-6.95Z"/><path fill="#0404BF" d="M98.58 189.32h-6.94v7h6.94v-7ZM98.58 182.37h-6.94v6.94h6.94v-6.94ZM98.58 175.36h-6.94v7.01h6.94v-7.01ZM98.58 168.42h-6.94v6.94h6.94v-6.94Z"/><path fill="#F9C126" d="M98.58 161.41h-6.94v7.01h6.94v-7.01Z"/><path fill="#0404BF" d="M98.58 154.4h-6.94v7h6.94v-7ZM98.58 147.46h-6.94v6.94h6.94v-6.94ZM98.58 140.45h-6.94v7.01h6.94v-7.01ZM98.58 133.51h-6.94v6.94h6.94v-6.94ZM98.58 126.49h-6.94v7.01h6.94v-7.01ZM98.58 119.55h-6.94v6.94h6.94v-6.94Z"/><path fill="#000" d="M98.58 112.54h-6.94v7.01h6.94v-7.01Z"/><path fill="#D8D7D6" d="M98.58 105.6h-6.94v6.94h6.94v-6.94Z"/><path fill="#D8D7D6" d="M98.58 98.59h-6.94v7.01h6.94v-7.01ZM98.58 91.58h-6.94v7.01h6.94v-7.01ZM98.58 84.64h-6.94v6.94h6.94v-6.94Z"/><path fill="#9E9B98" d="M98.58 77.63h-6.94v7.01h6.94v-7.01Z"/><path fill="#D8D7D6" d="M98.58 70.69h-6.94v6.94h6.94v-6.94Z"/><path fill="#EFB589" d="M98.58 63.68h-6.94v7.01h6.94v-7.01Z"/><path fill="#000" d="M98.58 56.74h-6.94v6.94h6.94v-6.94Z"/><path fill="#0404BF" d="M98.58 49.73h-6.94v7.01h6.94v-7.01ZM98.58 42.72h-6.94v7.01h6.94v-7.01Z"/><path fill="#000" d="M98.58 35.78h-6.94v6.94h6.94v-6.94ZM98.58 28.76h-6.94v7.01h6.94v-7.01Z"/><path fill="#0404BF" d="M91.64 245.18h-7.01v6.95h7.01v-6.95ZM91.64 238.18h-7.01v7h7.01v-7ZM91.64 231.24h-7.01v6.94h7.01v-6.94ZM91.64 224.22h-7.01v7.01h7.01v-7.01ZM91.64 217.28h-7.01v6.94h7.01v-6.94ZM91.64 210.27h-7.01v7.01h7.01v-7.01ZM91.64 203.27h-7.01v7h7.01v-7ZM91.64 196.31h-7.01v6.95h7.01v-6.95Z"/><path fill="#0404BF" d="M91.64 189.32h-7.01v7h7.01v-7Z"/><path fill="#030384" d="M91.64 182.37h-7.01v6.94h7.01v-6.94Z"/><path fill="#000" d="M91.64 175.36h-7.01v7.01h7.01v-7.01ZM91.64 168.42h-7.01v6.94h7.01v-6.94ZM91.64 161.41h-7.01v7.01h7.01v-7.01ZM91.64 154.4h-7.01v7h7.01v-7ZM91.64 147.46h-7.01v6.94h7.01v-6.94ZM91.64 140.45h-7.01v7.01h7.01v-7.01ZM91.64 133.51h-7.01v6.94h7.01v-6.94ZM91.64 126.49h-7.01v7.01h7.01v-7.01ZM91.64 119.55h-7.01v6.94h7.01v-6.94Z"/><path fill="#000" d="M91.64 112.54h-7.01v7.01h7.01v-7.01ZM91.64 105.6h-7.01v6.94h7.01v-6.94Z"/><path fill="#9E9B98" d="M91.64 98.59h-7.01v7.01h7.01v-7.01ZM91.64 91.58h-7.01v7.01h7.01v-7.01Z"/><path fill="#000" d="M91.64 84.64h-7.01v6.94h7.01v-6.94ZM91.64 77.63h-7.01v7.01h7.01v-7.01ZM91.64 70.69h-7.01v6.94h7.01v-6.94ZM91.64 63.68h-7.01v7.01h7.01v-7.01Z"/><path fill="#030384" d="M91.64 56.74h-7.01v6.94h7.01v-6.94Z"/><path fill="#0404BF" d="M91.64 49.73h-7.01v7.01h7.01v-7.01ZM91.64 42.72h-7.01v7.01h7.01v-7.01Z"/><path fill="#000" d="M91.64 35.78h-7.01v6.94h7.01v-6.94ZM84.63 245.18h-6.94v6.95h6.94v-6.95ZM84.63 238.18h-6.94v7h6.94v-7ZM84.63 231.24h-6.94v6.94h6.94v-6.94ZM84.63 224.22h-6.94v7.01h6.94v-7.01ZM84.63 217.28h-6.94v6.94h6.94v-6.94ZM84.63 210.27h-6.94v7.01h6.94v-7.01ZM84.63 203.27h-6.94v7h6.94v-7ZM84.63 196.31h-6.94v6.95h6.94v-6.95Z"/><path fill="#000" d="M84.63 189.32h-6.94v7h6.94v-7ZM84.63 182.37h-6.94v6.94h6.94v-6.94ZM84.63 147.46h-6.94v6.94h6.94v-6.94Z"/><path fill="#030384" d="M84.63 140.45h-6.94v7.01h6.94v-7.01ZM84.63 133.51h-6.94v6.94h6.94v-6.94ZM84.63 126.49h-6.94v7.01h6.94v-7.01Z"/><path fill="#000" d="M84.63 119.55h-6.94v6.94h6.94v-6.94ZM84.63 98.59h-6.94v7.01h6.94v-7.01ZM84.63 91.58h-6.94v7.01h6.94v-7.01ZM84.63 63.68h-6.94v7.01h6.94v-7.01Z"/><path fill="#030384" d="M84.63 56.74h-6.94v6.94h6.94v-6.94Z"/><path fill="#0404BF" d="M84.63 49.73h-6.94v7.01h6.94v-7.01Z"/><path fill="#000" d="M84.63 42.72h-6.94v7.01h6.94v-7.01ZM77.69 147.46h-7.01v6.94h7.01v-6.94Z"/><path fill="#030384" d="M77.69 140.45h-7.01v7.01h7.01v-7.01ZM77.69 133.51h-7.01v6.94h7.01v-6.94ZM77.69 126.49h-7.01v7.01h7.01v-7.01Z"/><path fill="#000" d="M77.69 119.55h-7.01v6.94h7.01v-6.94ZM77.69 63.68h-7.01v7.01h7.01v-7.01Z"/><path fill="#030384" d="M77.69 56.74h-7.01v6.94h7.01v-6.94Z"/><path fill="#000" d="M77.69 49.73h-7.01v7.01h7.01v-7.01ZM70.68 147.46h-6.94v6.94h6.94v-6.94Z"/><path fill="#030384" d="M70.68 140.45h-6.94v7.01h6.94v-7.01ZM70.68 133.51h-6.94v6.94h6.94v-6.94ZM70.68 126.49h-6.94v7.01h6.94v-7.01Z"/><path fill="#000" d="M70.68 119.55h-6.94v6.94h6.94v-6.94ZM70.68 77.63h-6.94v7.01h6.94v-7.01ZM70.68 70.69h-6.94v6.94h6.94v-6.94ZM70.68 63.68h-6.94v7.01h6.94v-7.01Z"/><path fill="#030384" d="M70.68 56.74h-6.94v6.94h6.94v-6.94Z"/><path fill="#000" d="M70.68 49.73h-6.94v7.01h6.94v-7.01ZM63.74 147.46h-7.01v6.94h7.01v-6.94ZM63.74 140.45h-7.01v7.01h7.01v-7.01ZM63.74 133.51h-7.01v6.94h7.01v-6.94ZM63.74 126.49h-7.01v7.01h7.01v-7.01ZM63.74 119.55h-7.01v6.94h7.01v-6.94ZM63.74 84.64h-7.01v6.94h7.01v-6.94Z"/><path fill="#FCB029" d="M63.74 77.63h-7.01v7.01h7.01v-7.01ZM63.74 70.69h-7.01v6.94h7.01v-6.94Z"/><path fill="#000" d="M63.74 63.68h-7.01v7.01h7.01v-7.01ZM63.74 56.74h-7.01v6.94h7.01v-6.94ZM63.74 49.73h-7.01v7.01h7.01v-7.01ZM56.73 140.45h-7.01v7.01h7.01v-7.01ZM56.73 133.51h-7.01v6.94h7.01v-6.94ZM56.73 126.49h-7.01v7.01h7.01v-7.01Z"/><path fill="#EDB58C" d="M56.73 119.55h-7.01v6.94h7.01v-6.94Z"/><path fill="#000" d="M56.73 112.54h-7.01v7.01h7.01v-7.01ZM56.73 91.58h-7.01v7.01h7.01v-7.01Z"/><path fill="#FCB029" d="M56.73 84.64h-7.01v6.94h7.01v-6.94ZM56.73 77.63h-7.01v7.01h7.01v-7.01Z"/><path fill="#2BE1F9" d="M56.73 70.69h-7.01v6.94h7.01v-6.94ZM56.73 63.68h-7.01v7.01h7.01v-7.01ZM56.73 56.74h-7.01v6.94h7.01v-6.94Z"/><path fill="#000" d="M49.72 238.18h-6.94v7h6.94v-7ZM49.72 231.24h-6.94v6.94h6.94v-6.94ZM49.72 224.22h-6.94v7.01h6.94v-7.01ZM49.72 217.28h-6.94v6.94h6.94v-6.94ZM49.72 210.27h-6.94v7.01h6.94v-7.01ZM49.72 203.27h-6.94v7h6.94v-7ZM49.72 196.31h-6.94v6.95h6.94v-6.95Z"/><path fill="#000" d="M49.72 189.32h-6.94v7h6.94v-7ZM49.72 182.37h-6.94v6.94h6.94v-6.94ZM49.72 175.36h-6.94v7.01h6.94v-7.01ZM49.72 168.42h-6.94v6.94h6.94v-6.94ZM49.72 161.41h-6.94v7.01h6.94v-7.01ZM49.72 154.4h-6.94v7h6.94v-7ZM49.72 147.46h-6.94v6.94h6.94v-6.94ZM49.72 140.45h-6.94v7.01h6.94v-7.01ZM49.72 133.51h-6.94v6.94h6.94v-6.94Z"/><path fill="#EDB58C" d="M49.72 126.49h-6.94v7.01h6.94v-7.01ZM49.72 119.55h-6.94v6.94h6.94v-6.94Z"/><path fill="#000" d="M49.72 112.54h-6.94v7.01h6.94v-7.01ZM49.72 105.6h-6.94v6.94h6.94v-6.94Z"/><path fill="#000" d="M49.72 98.59h-6.94v7.01h6.94v-7.01ZM49.72 91.58h-6.94v7.01h6.94v-7.01ZM49.72 84.64h-6.94v6.94h6.94v-6.94Z"/><path fill="#2BE1F9" d="M49.72 77.63h-6.94v7.01h6.94v-7.01ZM49.72 70.69h-6.94v6.94h6.94v-6.94ZM49.72 63.68h-6.94v7.01h6.94v-7.01ZM49.72 56.74h-6.94v6.94h6.94v-6.94ZM49.72 49.73h-6.94v7.01h6.94v-7.01Z"/><path fill="#000" d="M42.77 245.18h-7.01v6.95h7.01v-6.95Z"/><path fill="#823D27" d="M42.77 238.18h-7.01v7h7.01v-7ZM42.77 231.24h-7.01v6.94h7.01v-6.94ZM42.77 224.22h-7.01v7.01h7.01v-7.01ZM42.77 217.28h-7.01v6.94h7.01v-6.94ZM42.77 210.27h-7.01v7.01h7.01v-7.01ZM42.77 203.27h-7.01v7h7.01v-7ZM42.77 196.31h-7.01v6.95h7.01v-6.95Z"/><path fill="#823D27" d="M42.77 189.32h-7.01v7h7.01v-7ZM42.77 182.37h-7.01v6.94h7.01v-6.94ZM42.77 175.36h-7.01v7.01h7.01v-7.01ZM42.77 168.42h-7.01v6.94h7.01v-6.94ZM42.77 161.41h-7.01v7.01h7.01v-7.01ZM42.77 154.4h-7.01v7h7.01v-7ZM42.77 147.46h-7.01v6.94h7.01v-6.94ZM42.77 140.45h-7.01v7.01h7.01v-7.01ZM42.77 133.51h-7.01v6.94h7.01v-6.94Z"/><path fill="#000" d="M42.77 126.49h-7.01v7.01h7.01v-7.01Z"/><path fill="#823D27" d="M42.77 119.55h-7.01v6.94h7.01v-6.94Z"/><path fill="#000" d="M42.77 112.54h-7.01v7.01h7.01v-7.01Z"/><path fill="#823D27" d="M42.77 105.6h-7.01v6.94h7.01v-6.94Z"/><path fill="#823D27" d="M42.77 98.59h-7.01v7.01h7.01v-7.01ZM42.77 91.58h-7.01v7.01h7.01v-7.01Z"/><path fill="#FCB029" d="M42.77 84.64h-7.01v6.94h7.01v-6.94ZM42.77 77.63h-7.01v7.01h7.01v-7.01ZM42.77 70.69h-7.01v6.94h7.01v-6.94Z"/><path fill="#2BE1F9" d="M42.77 63.68h-7.01v7.01h7.01v-7.01ZM42.77 56.74h-7.01v6.94h7.01v-6.94ZM42.77 49.73h-7.01v7.01h7.01v-7.01ZM42.77 42.72h-7.01v7.01h7.01v-7.01Z"/><path fill="#000" d="M35.76 238.18h-6.94v7h6.94v-7ZM35.76 231.24h-6.94v6.94h6.94v-6.94ZM35.76 224.22h-6.94v7.01h6.94v-7.01ZM35.76 217.28h-6.94v6.94h6.94v-6.94ZM35.76 210.27h-6.94v7.01h6.94v-7.01ZM35.76 203.27h-6.94v7h6.94v-7ZM35.76 196.31h-6.94v6.95h6.94v-6.95Z"/><path fill="#000" d="M35.76 189.32h-6.94v7h6.94v-7ZM35.76 182.37h-6.94v6.94h6.94v-6.94ZM35.76 175.36h-6.94v7.01h6.94v-7.01ZM35.76 168.42h-6.94v6.94h6.94v-6.94ZM35.76 161.41h-6.94v7.01h6.94v-7.01ZM35.76 154.4h-6.94v7h6.94v-7ZM35.76 147.46h-6.94v6.94h6.94v-6.94ZM35.76 140.45h-6.94v7.01h6.94v-7.01Z"/><path fill="#EDB58C" d="M35.76 133.51h-6.94v6.94h6.94v-6.94Z"/><path fill="#823D27" d="M35.76 126.49h-6.94v7.01h6.94v-7.01Z"/><path fill="#EDB58C" d="M35.76 119.55h-6.94v6.94h6.94v-6.94Z"/><path fill="#000" d="M35.76 112.54h-6.94v7.01h6.94v-7.01ZM35.76 105.6h-6.94v6.94h6.94v-6.94Z"/><path fill="#000" d="M35.76 98.59h-6.94v7.01h6.94v-7.01ZM35.76 91.58h-6.94v7.01h6.94v-7.01Z"/><path fill="#2BE1F9" d="M35.76 84.64h-6.94v6.94h6.94v-6.94ZM35.76 77.63h-6.94v7.01h6.94v-7.01ZM35.76 70.69h-6.94v6.94h6.94v-6.94ZM35.76 63.68h-6.94v7.01h6.94v-7.01ZM35.76 56.74h-6.94v6.94h6.94v-6.94ZM35.76 49.73h-6.94v7.01h6.94v-7.01ZM35.76 42.72h-6.94v7.01h6.94v-7.01Z"/><path fill="#000" d="M28.82 140.45h-7.01v7.01h7.01v-7.01ZM28.82 133.51h-7.01v6.94h7.01v-6.94ZM28.82 126.49h-7.01v7.01h7.01v-7.01ZM28.82 119.55h-7.01v6.94h7.01v-6.94Z"/><path fill="#000" d="M28.82 112.54h-7.01v7.01h7.01v-7.01ZM28.82 91.58h-7.01v7.01h7.01v-7.01Z"/><path fill="#FCB029" d="M28.82 84.64h-7.01v6.94h7.01v-6.94Z"/><path fill="#2BE1F9" d="M28.82 77.63h-7.01v7.01h7.01v-7.01ZM28.82 70.69h-7.01v6.94h7.01v-6.94ZM28.82 63.68h-7.01v7.01h7.01v-7.01ZM28.82 56.74h-7.01v6.94h7.01v-6.94ZM28.82 49.73h-7.01v7.01h7.01v-7.01Z"/><path fill="#000" d="M21.81 91.58h-6.94v7.01h6.94v-7.01Z"/><path fill="#FCB029" d="M21.81 84.64h-6.94v6.94h6.94v-6.94ZM21.81 77.63h-6.94v7.01h6.94v-7.01Z"/><path fill="#2BE1F9" d="M21.81 70.69h-6.94v6.94h6.94v-6.94ZM21.81 63.68h-6.94v7.01h6.94v-7.01ZM21.81 56.74h-6.94v6.94h6.94v-6.94Z"/><path fill="#000" d="M14.87 84.64H7.86v6.94h7.01v-6.94Z"/><path fill="#FCB029" d="M14.87 77.63H7.86v7.01h7.01v-7.01ZM14.87 70.69H7.86v6.94h7.01v-6.94Z"/><path fill="#000" d="M7.86 77.63H.92v7.01h6.94v-7.01ZM7.86 70.69H.92v6.94h6.94v-6.94Z"/></svg>